<?xml version="1.0" encoding="us-ascii" standalone="no"?><svg xmlns="http://www.w3.org/2000/svg" xmlns:xlink="http://www.w3.org/1999/xlink" contentStyleType="text/css" height="2104px" preserveAspectRatio="none" style="width:758px;height:2104px;background:#FFFFFF;" version="1.1" viewBox="0 0 758 2104" width="758px" zoomAndPan="magnify"><defs/><g><rect fill="#F1F1F1" height="36.2969" rx="12.5" ry="12.5" style="stroke:#181818;stroke-width:1.5;" width="112" x="10" y="1033.3438"/><text fill="#000000" font-family="sans-serif" font-size="14" lengthAdjust="spacing" textLength="92" x="20" y="1056.3389">TransDataAPI</text><rect fill="#ADD8E6" height="36.2969" rx="12.5" ry="12.5" style="stroke:#181818;stroke-width:1.5;" width="111" x="172" y="357.7813"/><text fill="#000000" font-family="sans-serif" font-size="14" lengthAdjust="spacing" textLength="91" x="182" y="380.7764">UserGateway</text><rect fill="#ADD8E6" height="36.2969" rx="12.5" ry="12.5" style="stroke:#181818;stroke-width:1.5;" width="75" x="333" y="217.0391"/><text fill="#000000" font-family="sans-serif" font-size="14" lengthAdjust="spacing" textLength="55" x="343" y="240.0342">Manage</text><rect fill="#ADD8E6" height="36.2969" rx="12.5" ry="12.5" style="stroke:#181818;stroke-width:1.5;" width="52" x="458" y="104.4453"/><text fill="#000000" font-family="sans-serif" font-size="14" lengthAdjust="spacing" textLength="32" x="468" y="127.4404">User</text><rect fill="#90EE90" height="36.2969" rx="12.5" ry="12.5" style="stroke:#181818;stroke-width:1.5;" width="89" x="560" y="20"/><text fill="#000000" font-family="sans-serif" font-size="14" lengthAdjust="spacing" textLength="69" x="570" y="42.9951">GetToken</text><path d="M510,122.5938 L520,122.5938 C535,122.5938 535,38.1484 550,38.1484 L560,38.1484 " fill="none" style="stroke:#181818;stroke-width:1.0;"/><rect fill="#90EE90" height="36.2969" rx="12.5" ry="12.5" style="stroke:#181818;stroke-width:1.5;" width="78" x="560" y="76.2969"/><text fill="#000000" font-family="sans-serif" font-size="14" lengthAdjust="spacing" textLength="58" x="570" y="99.292">Register</text><path d="M510,122.5938 L520,122.5938 C535,122.5938 535,94.4453 550,94.4453 L560,94.4453 " fill="none" style="stroke:#181818;stroke-width:1.0;"/><rect fill="#90EE90" height="36.2969" rx="12.5" ry="12.5" style="stroke:#181818;stroke-width:1.5;" width="138" x="560" y="132.5938"/><text fill="#000000" font-family="sans-serif" font-size="14" lengthAdjust="spacing" textLength="118" x="570" y="155.5889">RequestRemoval</text><path d="M510,122.5938 L520,122.5938 C535,122.5938 535,150.7422 550,150.7422 L560,150.7422 " fill="none" style="stroke:#181818;stroke-width:1.0;"/><rect fill="#90EE90" height="36.2969" rx="12.5" ry="12.5" style="stroke:#181818;stroke-width:1.5;" width="128" x="560" y="188.8906"/><text fill="#000000" font-family="sans-serif" font-size="14" lengthAdjust="spacing" textLength="108" x="570" y="211.8857">ResetPassword</text><path d="M510,122.5938 L520,122.5938 C535,122.5938 535,207.0391 550,207.0391 L560,207.0391 " fill="none" style="stroke:#181818;stroke-width:1.0;"/><path d="M408,235.1875 L418,235.1875 C433,235.1875 433,122.5938 448,122.5938 L458,122.5938 " fill="none" style="stroke:#181818;stroke-width:1.0;"/><rect fill="#ADD8E6" height="36.2969" rx="12.5" ry="12.5" style="stroke:#181818;stroke-width:1.5;" width="100" x="458" y="329.6328"/><text fill="#000000" font-family="sans-serif" font-size="14" lengthAdjust="spacing" textLength="80" x="468" y="352.6279">VM/&lt;uuid&gt;</text><rect fill="#90EE90" height="36.2969" rx="12.5" ry="12.5" style="stroke:#181818;stroke-width:1.5;" width="71" x="608" y="245.1875"/><text fill="#000000" font-family="sans-serif" font-size="14" lengthAdjust="spacing" textLength="51" x="618" y="268.1826">Reboot</text><path d="M558,347.7813 L568,347.7813 C583,347.7813 583,263.3359 598,263.3359 L608,263.3359 " fill="none" style="stroke:#181818;stroke-width:1.0;"/><rect fill="#90EE90" height="36.2969" rx="12.5" ry="12.5" style="stroke:#181818;stroke-width:1.5;" width="90" x="608" y="301.4844"/><text fill="#000000" font-family="sans-serif" font-size="14" lengthAdjust="spacing" textLength="70" x="618" y="324.4795">Shutdown</text><path d="M558,347.7813 L568,347.7813 C583,347.7813 583,319.6328 598,319.6328 L608,319.6328 " fill="none" style="stroke:#181818;stroke-width:1.0;"/><rect fill="#90EE90" height="36.2969" rx="12.5" ry="12.5" style="stroke:#181818;stroke-width:1.5;" width="53" x="608" y="357.7813"/><text fill="#000000" font-family="sans-serif" font-size="14" lengthAdjust="spacing" textLength="33" x="618" y="380.7764">Boot</text><path d="M558,347.7813 L568,347.7813 C583,347.7813 583,375.9297 598,375.9297 L608,375.9297 " fill="none" style="stroke:#181818;stroke-width:1.0;"/><rect fill="#90EE90" height="36.2969" rx="12.5" ry="12.5" style="stroke:#181818;stroke-width:1.5;" width="113" x="608" y="414.0781"/><text fill="#000000" font-family="sans-serif" font-size="14" lengthAdjust="spacing" textLength="93" x="618" y="437.0732">Rebuild&lt;os&gt;</text><path d="M558,347.7813 L568,347.7813 C583,347.7813 583,432.2266 598,432.2266 L608,432.2266 " fill="none" style="stroke:#181818;stroke-width:1.0;"/><path d="M408,235.1875 L418,235.1875 C433,235.1875 433,347.7813 448,347.7813 L458,347.7813 " fill="none" style="stroke:#181818;stroke-width:1.0;"/><path d="M283,375.9297 L293,375.9297 C308,375.9297 308,235.1875 323,235.1875 L333,235.1875 " fill="none" style="stroke:#181818;stroke-width:1.0;"/><rect fill="#ADD8E6" height="36.2969" rx="12.5" ry="12.5" style="stroke:#181818;stroke-width:1.5;" width="66" x="333" y="582.9688"/><text fill="#000000" font-family="sans-serif" font-size="14" lengthAdjust="spacing" textLength="46" x="343" y="605.9639">Statics</text><rect fill="#90EE90" height="36.2969" rx="12.5" ry="12.5" style="stroke:#181818;stroke-width:1.5;" width="77" x="449" y="470.375"/><text fill="#000000" font-family="sans-serif" font-size="14" lengthAdjust="spacing" textLength="57" x="459" y="493.3701">GetUser</text><path d="M399,601.1172 L409,601.1172 C424,601.1172 424,488.5234 439,488.5234 L449,488.5234 " fill="none" style="stroke:#181818;stroke-width:1.0;"/><rect fill="#90EE90" height="36.2969" rx="12.5" ry="12.5" style="stroke:#181818;stroke-width:1.5;" width="85" x="449" y="526.6719"/><text fill="#000000" font-family="sans-serif" font-size="14" lengthAdjust="spacing" textLength="65" x="459" y="549.667">GetBilling</text><path d="M399,601.1172 L409,601.1172 C424,601.1172 424,544.8203 439,544.8203 L449,544.8203 " fill="none" style="stroke:#181818;stroke-width:1.0;"/><rect fill="#90EE90" height="36.2969" rx="12.5" ry="12.5" style="stroke:#181818;stroke-width:1.5;" width="87" x="449" y="582.9688"/><text fill="#000000" font-family="sans-serif" font-size="14" lengthAdjust="spacing" textLength="67" x="459" y="605.9639">GetTicket</text><path d="M399,601.1172 L409,601.1172 C424,601.1172 424,601.1172 439,601.1172 L449,601.1172 " fill="none" style="stroke:#181818;stroke-width:1.0;"/><rect fill="#90EE90" height="36.2969" rx="12.5" ry="12.5" style="stroke:#181818;stroke-width:1.5;" width="95" x="449" y="639.2656"/><text fill="#000000" font-family="sans-serif" font-size="14" lengthAdjust="spacing" textLength="75" x="459" y="662.2607">GetService</text><path d="M399,601.1172 L409,601.1172 C424,601.1172 424,657.4141 439,657.4141 L449,657.4141 " fill="none" style="stroke:#181818;stroke-width:1.0;"/><rect fill="#90EE90" height="36.2969" rx="12.5" ry="12.5" style="stroke:#181818;stroke-width:1.5;" width="66" x="449" y="695.5625"/><text fill="#000000" font-family="sans-serif" font-size="14" lengthAdjust="spacing" textLength="46" x="459" y="718.5576">GetVM</text><path d="M399,601.1172 L409,601.1172 C424,601.1172 424,713.7109 439,713.7109 L449,713.7109 " fill="none" style="stroke:#181818;stroke-width:1.0;"/><path d="M283,375.9297 L293,375.9297 C308,375.9297 308,601.1172 323,601.1172 L333,601.1172 " fill="none" style="stroke:#181818;stroke-width:1.0;"/><path d="M122,1051.4922 L132,1051.4922 C147,1051.4922 147,375.9297 162,375.9297 L172,375.9297 " fill="none" style="stroke:#181818;stroke-width:1.0;"/><rect fill="#0000FF" height="36.2969" rx="12.5" ry="12.5" style="stroke:#181818;stroke-width:1.5;" width="122" x="172" y="1399.2734"/><text fill="#000000" font-family="sans-serif" font-size="14" lengthAdjust="spacing" textLength="102" x="182" y="1422.2686">AdminGateway</text><rect fill="#0000FF" height="36.2969" rx="12.5" ry="12.5" style="stroke:#181818;stroke-width:1.5;" width="75" x="344" y="1202.2344"/><text fill="#000000" font-family="sans-serif" font-size="14" lengthAdjust="spacing" textLength="55" x="354" y="1225.2295">Manage</text><rect fill="#0000FF" height="36.2969" rx="12.5" ry="12.5" style="stroke:#181818;stroke-width:1.5;" width="52" x="469" y="836.3047"/><text fill="#000000" font-family="sans-serif" font-size="14" lengthAdjust="spacing" textLength="32" x="479" y="859.2998">User</text><rect fill="#FF0000" height="36.2969" rx="12.5" ry="12.5" style="stroke:#181818;stroke-width:1.5;" width="141" x="571" y="751.8594"/><text fill="#000000" font-family="sans-serif" font-size="14" lengthAdjust="spacing" textLength="121" x="581" y="774.8545">ModifyUserObject</text><path d="M521,854.4531 L531,854.4531 C546,854.4531 546,770.0078 561,770.0078 L571,770.0078 " fill="none" style="stroke:#181818;stroke-width:1.0;"/><rect fill="#FF0000" height="36.2969" rx="12.5" ry="12.5" style="stroke:#181818;stroke-width:1.5;" width="79" x="571" y="808.1563"/><text fill="#000000" font-family="sans-serif" font-size="14" lengthAdjust="spacing" textLength="59" x="581" y="831.1514">BanUser</text><path d="M521,854.4531 L531,854.4531 C546,854.4531 546,826.3047 561,826.3047 L571,826.3047 " fill="none" style="stroke:#181818;stroke-width:1.0;"/><rect fill="#FF0000" height="36.2969" rx="12.5" ry="12.5" style="stroke:#181818;stroke-width:1.5;" width="98" x="571" y="864.4531"/><text fill="#000000" font-family="sans-serif" font-size="14" lengthAdjust="spacing" textLength="78" x="581" y="887.4482">UnBanUser</text><path d="M521,854.4531 L531,854.4531 C546,854.4531 546,882.6016 561,882.6016 L571,882.6016 " fill="none" style="stroke:#181818;stroke-width:1.0;"/><rect fill="#FF0000" height="36.2969" rx="12.5" ry="12.5" style="stroke:#181818;stroke-width:1.5;" width="96" x="571" y="920.75"/><text fill="#000000" font-family="sans-serif" font-size="14" lengthAdjust="spacing" textLength="76" x="581" y="943.7451">ApplyOrder</text><path d="M521,854.4531 L531,854.4531 C546,854.4531 546,938.8984 561,938.8984 L571,938.8984 " fill="none" style="stroke:#181818;stroke-width:1.0;"/><path d="M419,1220.3828 L429,1220.3828 C444,1220.3828 444,854.4531 459,854.4531 L469,854.4531 " fill="none" style="stroke:#181818;stroke-width:1.0;"/><rect fill="#0000FF" height="36.2969" rx="12.5" ry="12.5" style="stroke:#181818;stroke-width:1.5;" width="60" x="469" y="1033.3438"/><text fill="#000000" font-family="sans-serif" font-size="14" lengthAdjust="spacing" textLength="40" x="479" y="1056.3389">Billing</text><rect fill="#FF0000" height="36.2969" rx="12.5" ry="12.5" style="stroke:#181818;stroke-width:1.5;" width="136" x="579" y="977.0469"/><text fill="#000000" font-family="sans-serif" font-size="14" lengthAdjust="spacing" textLength="116" x="589" y="1000.042">SetBillingMethod</text><path d="M529,1051.4922 L539,1051.4922 C554,1051.4922 554,995.1953 569,995.1953 L579,995.1953 " fill="none" style="stroke:#181818;stroke-width:1.0;"/><rect fill="#FF0000" height="36.2969" rx="12.5" ry="12.5" style="stroke:#181818;stroke-width:1.5;" width="107" x="579" y="1033.3438"/><text fill="#000000" font-family="sans-serif" font-size="14" lengthAdjust="spacing" textLength="87" x="589" y="1056.3389">ApplyRefund</text><path d="M529,1051.4922 L539,1051.4922 C554,1051.4922 554,1051.4922 569,1051.4922 L579,1051.4922 " fill="none" style="stroke:#181818;stroke-width:1.0;"/><rect fill="#FF0000" height="36.2969" rx="12.5" ry="12.5" style="stroke:#181818;stroke-width:1.5;" width="149" x="579" y="1089.6406"/><text fill="#000000" font-family="sans-serif" font-size="14" lengthAdjust="spacing" textLength="129" x="589" y="1112.6357">ModifyBillingObject</text><path d="M529,1051.4922 L539,1051.4922 C554,1051.4922 554,1107.7891 569,1107.7891 L579,1107.7891 " fill="none" style="stroke:#181818;stroke-width:1.0;"/><path d="M419,1220.3828 L429,1220.3828 C444,1220.3828 444,1051.4922 459,1051.4922 L469,1051.4922 " fill="none" style="stroke:#181818;stroke-width:1.0;"/><rect fill="#0000FF" height="36.2969" rx="12.5" ry="12.5" style="stroke:#181818;stroke-width:1.5;" width="62" x="469" y="1202.2344"/><text fill="#000000" font-family="sans-serif" font-size="14" lengthAdjust="spacing" textLength="42" x="479" y="1225.2295">Ticket</text><rect fill="#FF0000" height="36.2969" rx="12.5" ry="12.5" style="stroke:#181818;stroke-width:1.5;" width="108" x="581" y="1145.9375"/><text fill="#000000" font-family="sans-serif" font-size="14" lengthAdjust="spacing" textLength="88" x="591" y="1168.9326">CreateTicket</text><path d="M531,1220.3828 L541,1220.3828 C556,1220.3828 556,1164.0859 571,1164.0859 L581,1164.0859 " fill="none" style="stroke:#181818;stroke-width:1.0;"/><rect fill="#FF0000" height="36.2969" rx="12.5" ry="12.5" style="stroke:#181818;stroke-width:1.5;" width="101" x="581" y="1202.2344"/><text fill="#000000" font-family="sans-serif" font-size="14" lengthAdjust="spacing" textLength="81" x="591" y="1225.2295">CloseTicket</text><path d="M531,1220.3828 L541,1220.3828 C556,1220.3828 556,1220.3828 571,1220.3828 L581,1220.3828 " fill="none" style="stroke:#181818;stroke-width:1.0;"/><rect fill="#FF0000" height="36.2969" rx="12.5" ry="12.5" style="stroke:#181818;stroke-width:1.5;" width="151" x="581" y="1258.5313"/><text fill="#000000" font-family="sans-serif" font-size="14" lengthAdjust="spacing" textLength="131" x="591" y="1281.5264">ModifyTicketObject</text><path d="M531,1220.3828 L541,1220.3828 C556,1220.3828 556,1276.6797 571,1276.6797 L581,1276.6797 " fill="none" style="stroke:#181818;stroke-width:1.0;"/><path d="M419,1220.3828 L429,1220.3828 C444,1220.3828 444,1220.3828 459,1220.3828 L469,1220.3828 " fill="none" style="stroke:#181818;stroke-width:1.0;"/><rect fill="#0000FF" height="36.2969" rx="12.5" ry="12.5" style="stroke:#181818;stroke-width:1.5;" width="69" x="469" y="1399.2734"/><text fill="#000000" font-family="sans-serif" font-size="14" lengthAdjust="spacing" textLength="49" x="479" y="1422.2686">Cluster</text><rect fill="#FF0000" height="36.2969" rx="12.5" ry="12.5" style="stroke:#181818;stroke-width:1.5;" width="96" x="588" y="1314.8281"/><text fill="#000000" font-family="sans-serif" font-size="14" lengthAdjust="spacing" textLength="76" x="598" y="1337.8232">AddCluster</text><path d="M538,1417.4219 L548,1417.4219 C563,1417.4219 563,1332.9766 578,1332.9766 L588,1332.9766 " fill="none" style="stroke:#181818;stroke-width:1.0;"/><rect fill="#FF0000" height="36.2969" rx="12.5" ry="12.5" style="stroke:#181818;stroke-width:1.5;" width="136" x="588" y="1371.125"/><text fill="#000000" font-family="sans-serif" font-size="14" lengthAdjust="spacing" textLength="116" x="598" y="1394.1201">SetClusterToken</text><path d="M538,1417.4219 L548,1417.4219 C563,1417.4219 563,1389.2734 578,1389.2734 L588,1389.2734 " fill="none" style="stroke:#181818;stroke-width:1.0;"/><rect fill="#FF0000" height="36.2969" rx="12.5" ry="12.5" style="stroke:#181818;stroke-width:1.5;" width="126" x="588" y="1427.4219"/><text fill="#000000" font-family="sans-serif" font-size="14" lengthAdjust="spacing" textLength="106" x="598" y="1450.417">RemoveCluster</text><path d="M538,1417.4219 L548,1417.4219 C563,1417.4219 563,1445.5703 578,1445.5703 L588,1445.5703 " fill="none" style="stroke:#181818;stroke-width:1.0;"/><rect fill="#FF0000" height="36.2969" rx="12.5" ry="12.5" style="stroke:#181818;stroke-width:1.5;" width="158" x="588" y="1483.7188"/><text fill="#000000" font-family="sans-serif" font-size="14" lengthAdjust="spacing" textLength="138" x="598" y="1506.7139">ModifyClusterObject</text><path d="M538,1417.4219 L548,1417.4219 C563,1417.4219 563,1501.8672 578,1501.8672 L588,1501.8672 " fill="none" style="stroke:#181818;stroke-width:1.0;"/><path d="M419,1220.3828 L429,1220.3828 C444,1220.3828 444,1417.4219 459,1417.4219 L469,1417.4219 " fill="none" style="stroke:#181818;stroke-width:1.0;"/><rect fill="#0000FF" height="36.2969" rx="12.5" ry="12.5" style="stroke:#181818;stroke-width:1.5;" width="41" x="469" y="1596.3125"/><text fill="#000000" font-family="sans-serif" font-size="14" lengthAdjust="spacing" textLength="21" x="479" y="1619.3076">VM</text><rect fill="#FF0000" height="36.2969" rx="12.5" ry="12.5" style="stroke:#181818;stroke-width:1.5;" width="130" x="560" y="1540.0156"/><text fill="#000000" font-family="sans-serif" font-size="14" lengthAdjust="spacing" textLength="110" x="570" y="1563.0107">ModifyVMObject</text><path d="M510,1614.4609 L520,1614.4609 C535,1614.4609 535,1558.1641 550,1558.1641 L560,1558.1641 " fill="none" style="stroke:#181818;stroke-width:1.0;"/><rect fill="#FF0000" height="36.2969" rx="12.5" ry="12.5" style="stroke:#181818;stroke-width:1.5;" width="87" x="560" y="1596.3125"/><text fill="#000000" font-family="sans-serif" font-size="14" lengthAdjust="spacing" textLength="67" x="570" y="1619.3076">DeleteVM</text><path d="M510,1614.4609 L520,1614.4609 C535,1614.4609 535,1614.4609 550,1614.4609 L560,1614.4609 " fill="none" style="stroke:#181818;stroke-width:1.0;"/><rect fill="#FF0000" height="36.2969" rx="12.5" ry="12.5" style="stroke:#181818;stroke-width:1.5;" width="68" x="560" y="1652.6094"/><text fill="#000000" font-family="sans-serif" font-size="14" lengthAdjust="spacing" textLength="48" x="570" y="1675.6045">AddVM</text><path d="M510,1614.4609 L520,1614.4609 C535,1614.4609 535,1670.7578 550,1670.7578 L560,1670.7578 " fill="none" style="stroke:#181818;stroke-width:1.0;"/><path d="M419,1220.3828 L429,1220.3828 C444,1220.3828 444,1614.4609 459,1614.4609 L469,1614.4609 " fill="none" style="stroke:#181818;stroke-width:1.0;"/><path d="M294,1417.4219 L304,1417.4219 C319,1417.4219 319,1220.3828 334,1220.3828 L344,1220.3828 " fill="none" style="stroke:#181818;stroke-width:1.0;"/><rect fill="#0000FF" height="36.2969" rx="12.5" ry="12.5" style="stroke:#181818;stroke-width:1.5;" width="66" x="344" y="1877.7969"/><text fill="#000000" font-family="sans-serif" font-size="14" lengthAdjust="spacing" textLength="46" x="354" y="1900.792">Statics</text><rect fill="#FF0000" height="36.2969" rx="12.5" ry="12.5" style="stroke:#181818;stroke-width:1.5;" width="131" x="460" y="1708.9063"/><text fill="#000000" font-family="sans-serif" font-size="14" lengthAdjust="spacing" textLength="111" x="470" y="1731.9014">GetBillingStatics</text><path d="M410,1895.9453 L420,1895.9453 C435,1895.9453 435,1727.0547 450,1727.0547 L460,1727.0547 " fill="none" style="stroke:#181818;stroke-width:1.0;"/><rect fill="#FF0000" height="36.2969" rx="12.5" ry="12.5" style="stroke:#181818;stroke-width:1.5;" width="100" x="460" y="1765.2031"/><text fill="#000000" font-family="sans-serif" font-size="14" lengthAdjust="spacing" textLength="80" x="470" y="1788.1982">GetUserList</text><path d="M410,1895.9453 L420,1895.9453 C435,1895.9453 435,1783.3516 450,1783.3516 L460,1783.3516 " fill="none" style="stroke:#181818;stroke-width:1.0;"/><rect fill="#FF0000" height="36.2969" rx="12.5" ry="12.5" style="stroke:#181818;stroke-width:1.5;" width="108" x="460" y="1821.5"/><text fill="#000000" font-family="sans-serif" font-size="14" lengthAdjust="spacing" textLength="88" x="470" y="1844.4951">GetBillingList</text><path d="M410,1895.9453 L420,1895.9453 C435,1895.9453 435,1839.6484 450,1839.6484 L460,1839.6484 " fill="none" style="stroke:#181818;stroke-width:1.0;"/><rect fill="#FF0000" height="36.2969" rx="12.5" ry="12.5" style="stroke:#181818;stroke-width:1.5;" width="110" x="460" y="1877.7969"/><text fill="#000000" font-family="sans-serif" font-size="14" lengthAdjust="spacing" textLength="90" x="470" y="1900.792">GetTicketList</text><path d="M410,1895.9453 L420,1895.9453 C435,1895.9453 435,1895.9453 450,1895.9453 L460,1895.9453 " fill="none" style="stroke:#181818;stroke-width:1.0;"/><rect fill="#FF0000" height="36.2969" rx="12.5" ry="12.5" style="stroke:#181818;stroke-width:1.5;" width="117" x="460" y="1934.0938"/><text fill="#000000" font-family="sans-serif" font-size="14" lengthAdjust="spacing" textLength="97" x="470" y="1957.0889">GetClusterList</text><path d="M410,1895.9453 L420,1895.9453 C435,1895.9453 435,1952.2422 450,1952.2422 L460,1952.2422 " fill="none" style="stroke:#181818;stroke-width:1.0;"/><rect fill="#FF0000" height="36.2969" rx="12.5" ry="12.5" style="stroke:#181818;stroke-width:1.5;" width="138" x="460" y="1990.3906"/><text fill="#000000" font-family="sans-serif" font-size="14" lengthAdjust="spacing" textLength="118" x="470" y="2013.3857">GetClusterStatus</text><path d="M410,1895.9453 L420,1895.9453 C435,1895.9453 435,2008.5391 450,2008.5391 L460,2008.5391 " fill="none" style="stroke:#181818;stroke-width:1.0;"/><rect fill="#FF0000" height="36.2969" rx="12.5" ry="12.5" style="stroke:#181818;stroke-width:1.5;" width="110" x="460" y="2046.6875"/><text fill="#000000" font-family="sans-serif" font-size="14" lengthAdjust="spacing" textLength="90" x="470" y="2069.6826">GetVMStatus</text><path d="M410,1895.9453 L420,1895.9453 C435,1895.9453 435,2064.8359 450,2064.8359 L460,2064.8359 " fill="none" style="stroke:#181818;stroke-width:1.0;"/><path d="M294,1417.4219 L304,1417.4219 C319,1417.4219 319,1895.9453 334,1895.9453 L344,1895.9453 " fill="none" style="stroke:#181818;stroke-width:1.0;"/><path d="M122,1051.4922 L132,1051.4922 C147,1051.4922 147,1417.4219 162,1417.4219 L172,1417.4219 " fill="none" style="stroke:#181818;stroke-width:1.0;"/><!--SRC=[ZPLTRzem58RlyoiixQQjj6u1QQfGLPMF3QqYAWgGNKozSE93y6fiPX-3-FSr96LC97Pp5vt7hz_paPD7WrJZcaksffleXimrbMP4aVQdFoFYdflVdmGlLvWB2ozaOK2FASAExe_HIoAXafPm2ZPB_1S-HqeD85_8672kNa66k1HARZ2iby9V2mPJMAij5M7Q04wfCJkbcIUJBFboRord3s71N2aCKRELHQPsmQG77z1oDreksBqo3orzcY55NfZ8tuMBPbqY0ou4bsM0clFY5J00pK1lUG41AakYzyciKkapDxyDK-aRIFyiQc3ke69ykJyWp_aVAB0L753f5Lh84D7VRCJ-MRFBObS-csfyVdvsQaC2k5BCVr4AIojP8EzQho7rawk6dfxh33MudeGWeKo8gGnLaC_FKDYsPL0bprW8SOMiaTRzS-IEcmH2QfNncl8vToFjryYIm0oEG022HySbVnOztToo1ev7_dtS0UemsnEtY0CgFgJghe-eo_W1vE3MjfhDaZh-29Az__YYgQ0I5yc4R44RhYI9RpjVEztREBxw1SpDnOR4NHBVzJhVUjqkMSo7v12_Zgx6qmanoke227FUDCyjEe7hw8bkAKcjHBw67f5MYEWfItfaPdE7kK_ZqFOHBAaLIBxBmZLQbZqd_UFpNJIXihHkRzK7Xyhfw7trzWO0]--></g></svg>