<?xml version="1.0" encoding="us-ascii" standalone="no"?><svg xmlns="http://www.w3.org/2000/svg" xmlns:xlink="http://www.w3.org/1999/xlink" contentStyleType="text/css" height="2330px" preserveAspectRatio="none" style="width:890px;height:2330px;background:#FFFFFF;" version="1.1" viewBox="0 0 890 2330" width="890px" zoomAndPan="magnify"><defs/><g><rect fill="#F1F1F1" height="36.2969" rx="12.5" ry="12.5" style="stroke:#181818;stroke-width:1.5;" width="112" x="10" y="1145.9375"/><text fill="#000000" font-family="sans-serif" font-size="14" lengthAdjust="spacing" textLength="92" x="20" y="1168.9326">TransDataAPI</text><rect fill="#ADD8E6" height="36.2969" rx="12.5" ry="12.5" style="stroke:#181818;stroke-width:1.5;" width="111" x="172" y="526.6719"/><text fill="#000000" font-family="sans-serif" font-size="14" lengthAdjust="spacing" textLength="91" x="182" y="549.667">UserGateway</text><rect fill="#ADD8E6" height="36.2969" rx="12.5" ry="12.5" style="stroke:#181818;stroke-width:1.5;" width="75" x="333" y="385.9297"/><text fill="#000000" font-family="sans-serif" font-size="14" lengthAdjust="spacing" textLength="55" x="343" y="408.9248">Manage</text><rect fill="#ADD8E6" height="36.2969" rx="12.5" ry="12.5" style="stroke:#181818;stroke-width:1.5;" width="52" x="458" y="76.2969"/><text fill="#000000" font-family="sans-serif" font-size="14" lengthAdjust="spacing" textLength="32" x="468" y="99.292">User</text><rect fill="#90EE90" height="36.2969" rx="12.5" ry="12.5" style="stroke:#181818;stroke-width:1.5;" width="89" x="560" y="20"/><text fill="#000000" font-family="sans-serif" font-size="14" lengthAdjust="spacing" textLength="69" x="570" y="42.9951">GetToken</text><path d="M510,94.4453 L520,94.4453 C535,94.4453 535,38.1484 550,38.1484 L560,38.1484 " fill="none" style="stroke:#181818;stroke-width:1.0;"/><rect fill="#90EE90" height="36.2969" rx="12.5" ry="12.5" style="stroke:#181818;stroke-width:1.5;" width="78" x="560" y="76.2969"/><text fill="#000000" font-family="sans-serif" font-size="14" lengthAdjust="spacing" textLength="58" x="570" y="99.292">Register</text><path d="M510,94.4453 L520,94.4453 C535,94.4453 535,94.4453 550,94.4453 L560,94.4453 " fill="none" style="stroke:#181818;stroke-width:1.0;"/><rect fill="#90EE90" height="36.2969" rx="12.5" ry="12.5" style="stroke:#181818;stroke-width:1.5;" width="128" x="560" y="132.5938"/><text fill="#000000" font-family="sans-serif" font-size="14" lengthAdjust="spacing" textLength="108" x="570" y="155.5889">ResetPassword</text><path d="M510,94.4453 L520,94.4453 C535,94.4453 535,150.7422 550,150.7422 L560,150.7422 " fill="none" style="stroke:#181818;stroke-width:1.0;"/><path d="M408,404.0781 L418,404.0781 C433,404.0781 433,94.4453 448,94.4453 L458,94.4453 " fill="none" style="stroke:#181818;stroke-width:1.0;"/><rect fill="#ADD8E6" height="36.2969" rx="12.5" ry="12.5" style="stroke:#181818;stroke-width:1.5;" width="59" x="458" y="217.0391"/><text fill="#000000" font-family="sans-serif" font-size="14" lengthAdjust="spacing" textLength="39" x="468" y="240.0342">Order</text><rect fill="#90EE90" height="36.2969" rx="12.5" ry="12.5" style="stroke:#181818;stroke-width:1.5;" width="96" x="567" y="188.8906"/><text fill="#000000" font-family="sans-serif" font-size="14" lengthAdjust="spacing" textLength="76" x="577" y="211.8857">PlaceOrder</text><path d="M517,235.1875 L527,235.1875 C542,235.1875 542,207.0391 557,207.0391 L567,207.0391 " fill="none" style="stroke:#181818;stroke-width:1.0;"/><rect fill="#90EE90" height="36.2969" rx="12.5" ry="12.5" style="stroke:#181818;stroke-width:1.5;" width="106" x="567" y="245.1875"/><text fill="#000000" font-family="sans-serif" font-size="14" lengthAdjust="spacing" textLength="86" x="577" y="268.1826">CancelOrder</text><path d="M517,235.1875 L527,235.1875 C542,235.1875 542,263.3359 557,263.3359 L567,263.3359 " fill="none" style="stroke:#181818;stroke-width:1.0;"/><path d="M408,404.0781 L418,404.0781 C433,404.0781 433,235.1875 448,235.1875 L458,235.1875 " fill="none" style="stroke:#181818;stroke-width:1.0;"/><rect fill="#ADD8E6" height="36.2969" rx="12.5" ry="12.5" style="stroke:#181818;stroke-width:1.5;" width="60" x="458" y="301.4844"/><text fill="#000000" font-family="sans-serif" font-size="14" lengthAdjust="spacing" textLength="40" x="468" y="324.4795">Billing</text><rect fill="#90EE90" height="36.2969" rx="12.5" ry="12.5" style="stroke:#181818;stroke-width:1.5;" width="139" x="568" y="301.4844"/><text fill="#000000" font-family="sans-serif" font-size="14" lengthAdjust="spacing" textLength="119" x="578" y="324.4795">PaymentGateway</text><path d="M518,319.6328 L528,319.6328 C543,319.6328 543,319.6328 558,319.6328 L568,319.6328 " fill="none" style="stroke:#181818;stroke-width:1.0;"/><path d="M408,404.0781 L418,404.0781 C433,404.0781 433,319.6328 448,319.6328 L458,319.6328 " fill="none" style="stroke:#181818;stroke-width:1.0;"/><rect fill="#ADD8E6" height="36.2969" rx="12.5" ry="12.5" style="stroke:#181818;stroke-width:1.5;" width="62" x="458" y="357.7813"/><text fill="#000000" font-family="sans-serif" font-size="14" lengthAdjust="spacing" textLength="42" x="468" y="380.7764">Ticket</text><rect fill="#90EE90" height="36.2969" rx="12.5" ry="12.5" style="stroke:#181818;stroke-width:1.5;" width="106" x="570" y="357.7813"/><text fill="#000000" font-family="sans-serif" font-size="14" lengthAdjust="spacing" textLength="86" x="580" y="380.7764">ModifyTicket</text><path d="M520,375.9297 L530,375.9297 C545,375.9297 545,375.9297 560,375.9297 L570,375.9297 " fill="none" style="stroke:#181818;stroke-width:1.0;"/><path d="M408,404.0781 L418,404.0781 C433,404.0781 433,375.9297 448,375.9297 L458,375.9297 " fill="none" style="stroke:#181818;stroke-width:1.0;"/><rect fill="#ADD8E6" height="36.2969" rx="12.5" ry="12.5" style="stroke:#181818;stroke-width:1.5;" width="70" x="458" y="582.9688"/><text fill="#000000" font-family="sans-serif" font-size="14" lengthAdjust="spacing" textLength="50" x="468" y="605.9639">Service</text><rect fill="#ADD8E6" height="36.2969" rx="12.5" ry="12.5" style="stroke:#181818;stroke-width:1.5;" width="100" x="578" y="526.6719"/><text fill="#000000" font-family="sans-serif" font-size="14" lengthAdjust="spacing" textLength="80" x="588" y="549.667">VM/&lt;uuid&gt;</text><rect fill="#90EE90" height="36.2969" rx="12.5" ry="12.5" style="stroke:#181818;stroke-width:1.5;" width="71" x="728" y="414.0781"/><text fill="#000000" font-family="sans-serif" font-size="14" lengthAdjust="spacing" textLength="51" x="738" y="437.0732">Reboot</text><path d="M678,544.8203 L688,544.8203 C703,544.8203 703,432.2266 718,432.2266 L728,432.2266 " fill="none" style="stroke:#181818;stroke-width:1.0;"/><rect fill="#90EE90" height="36.2969" rx="12.5" ry="12.5" style="stroke:#181818;stroke-width:1.5;" width="90" x="728" y="470.375"/><text fill="#000000" font-family="sans-serif" font-size="14" lengthAdjust="spacing" textLength="70" x="738" y="493.3701">Shutdown</text><path d="M678,544.8203 L688,544.8203 C703,544.8203 703,488.5234 718,488.5234 L728,488.5234 " fill="none" style="stroke:#181818;stroke-width:1.0;"/><rect fill="#90EE90" height="36.2969" rx="12.5" ry="12.5" style="stroke:#181818;stroke-width:1.5;" width="53" x="728" y="526.6719"/><text fill="#000000" font-family="sans-serif" font-size="14" lengthAdjust="spacing" textLength="33" x="738" y="549.667">Boot</text><path d="M678,544.8203 L688,544.8203 C703,544.8203 703,544.8203 718,544.8203 L728,544.8203 " fill="none" style="stroke:#181818;stroke-width:1.0;"/><rect fill="#90EE90" height="36.2969" rx="12.5" ry="12.5" style="stroke:#181818;stroke-width:1.5;" width="113" x="728" y="582.9688"/><text fill="#000000" font-family="sans-serif" font-size="14" lengthAdjust="spacing" textLength="93" x="738" y="605.9639">Rebuild&lt;os&gt;</text><path d="M678,544.8203 L688,544.8203 C703,544.8203 703,601.1172 718,601.1172 L728,601.1172 " fill="none" style="stroke:#181818;stroke-width:1.0;"/><rect fill="#90EE90" height="36.2969" rx="12.5" ry="12.5" style="stroke:#181818;stroke-width:1.5;" width="138" x="728" y="639.2656"/><text fill="#000000" font-family="sans-serif" font-size="14" lengthAdjust="spacing" textLength="118" x="738" y="662.2607">RequestRemoval</text><path d="M678,544.8203 L688,544.8203 C703,544.8203 703,657.4141 718,657.4141 L728,657.4141 " fill="none" style="stroke:#181818;stroke-width:1.0;"/><path d="M528,601.1172 L538,601.1172 C553,601.1172 553,544.8203 568,544.8203 L578,544.8203 " fill="none" style="stroke:#181818;stroke-width:1.0;"/><rect fill="#ADD8E6" height="36.2969" rx="12.5" ry="12.5" style="stroke:#181818;stroke-width:1.5;" width="183" x="578" y="723.7109"/><text fill="#000000" font-family="sans-serif" font-size="14" lengthAdjust="spacing" textLength="163" x="588" y="746.7061">PortForwarding/&lt;uuid&gt;</text><rect fill="#90EE90" height="36.2969" rx="12.5" ry="12.5" style="stroke:#181818;stroke-width:1.5;" width="64" x="811" y="695.5625"/><text fill="#000000" font-family="sans-serif" font-size="14" lengthAdjust="spacing" textLength="44" x="821" y="718.5576">Modify</text><path d="M761,741.8594 L771,741.8594 C786,741.8594 786,713.7109 801,713.7109 L811,713.7109 " fill="none" style="stroke:#181818;stroke-width:1.0;"/><rect fill="#90EE90" height="36.2969" rx="12.5" ry="12.5" style="stroke:#181818;stroke-width:1.5;" width="66" x="811" y="751.8594"/><text fill="#000000" font-family="sans-serif" font-size="14" lengthAdjust="spacing" textLength="46" x="821" y="774.8545">Delete</text><path d="M761,741.8594 L771,741.8594 C786,741.8594 786,770.0078 801,770.0078 L811,770.0078 " fill="none" style="stroke:#181818;stroke-width:1.0;"/><path d="M528,601.1172 L538,601.1172 C553,601.1172 553,741.8594 568,741.8594 L578,741.8594 " fill="none" style="stroke:#181818;stroke-width:1.0;"/><path d="M408,404.0781 L418,404.0781 C433,404.0781 433,601.1172 448,601.1172 L458,601.1172 " fill="none" style="stroke:#181818;stroke-width:1.0;"/><path d="M283,544.8203 L293,544.8203 C308,544.8203 308,404.0781 323,404.0781 L333,404.0781 " fill="none" style="stroke:#181818;stroke-width:1.0;"/><rect fill="#ADD8E6" height="36.2969" rx="12.5" ry="12.5" style="stroke:#181818;stroke-width:1.5;" width="66" x="333" y="920.75"/><text fill="#000000" font-family="sans-serif" font-size="14" lengthAdjust="spacing" textLength="46" x="343" y="943.7451">Statics</text><rect fill="#90EE90" height="36.2969" rx="12.5" ry="12.5" style="stroke:#181818;stroke-width:1.5;" width="77" x="449" y="808.1563"/><text fill="#000000" font-family="sans-serif" font-size="14" lengthAdjust="spacing" textLength="57" x="459" y="831.1514">GetUser</text><path d="M399,938.8984 L409,938.8984 C424,938.8984 424,826.3047 439,826.3047 L449,826.3047 " fill="none" style="stroke:#181818;stroke-width:1.0;"/><rect fill="#90EE90" height="36.2969" rx="12.5" ry="12.5" style="stroke:#181818;stroke-width:1.5;" width="84" x="449" y="864.4531"/><text fill="#000000" font-family="sans-serif" font-size="14" lengthAdjust="spacing" textLength="64" x="459" y="887.4482">GetOrder</text><path d="M399,938.8984 L409,938.8984 C424,938.8984 424,882.6016 439,882.6016 L449,882.6016 " fill="none" style="stroke:#181818;stroke-width:1.0;"/><rect fill="#90EE90" height="36.2969" rx="12.5" ry="12.5" style="stroke:#181818;stroke-width:1.5;" width="85" x="449" y="920.75"/><text fill="#000000" font-family="sans-serif" font-size="14" lengthAdjust="spacing" textLength="65" x="459" y="943.7451">GetBilling</text><path d="M399,938.8984 L409,938.8984 C424,938.8984 424,938.8984 439,938.8984 L449,938.8984 " fill="none" style="stroke:#181818;stroke-width:1.0;"/><rect fill="#90EE90" height="36.2969" rx="12.5" ry="12.5" style="stroke:#181818;stroke-width:1.5;" width="87" x="449" y="977.0469"/><text fill="#000000" font-family="sans-serif" font-size="14" lengthAdjust="spacing" textLength="67" x="459" y="1000.042">GetTicket</text><path d="M399,938.8984 L409,938.8984 C424,938.8984 424,995.1953 439,995.1953 L449,995.1953 " fill="none" style="stroke:#181818;stroke-width:1.0;"/><rect fill="#90EE90" height="36.2969" rx="12.5" ry="12.5" style="stroke:#181818;stroke-width:1.5;" width="95" x="449" y="1033.3438"/><text fill="#000000" font-family="sans-serif" font-size="14" lengthAdjust="spacing" textLength="75" x="459" y="1056.3389">GetService</text><path d="M399,938.8984 L409,938.8984 C424,938.8984 424,1051.4922 439,1051.4922 L449,1051.4922 " fill="none" style="stroke:#181818;stroke-width:1.0;"/><path d="M283,544.8203 L293,544.8203 C308,544.8203 308,938.8984 323,938.8984 L333,938.8984 " fill="none" style="stroke:#181818;stroke-width:1.0;"/><path d="M122,1164.0859 L132,1164.0859 C147,1164.0859 147,544.8203 162,544.8203 L172,544.8203 " fill="none" style="stroke:#181818;stroke-width:1.0;"/><rect fill="#FFA500" height="36.2969" rx="12.5" ry="12.5" style="stroke:#181818;stroke-width:1.5;" width="122" x="172" y="1680.7578"/><text fill="#000000" font-family="sans-serif" font-size="14" lengthAdjust="spacing" textLength="102" x="182" y="1703.7529">AdminGateway</text><rect fill="#FFA500" height="36.2969" rx="12.5" ry="12.5" style="stroke:#181818;stroke-width:1.5;" width="75" x="344" y="1427.4219"/><text fill="#000000" font-family="sans-serif" font-size="14" lengthAdjust="spacing" textLength="55" x="354" y="1450.417">Manage</text><rect fill="#FFA500" height="36.2969" rx="12.5" ry="12.5" style="stroke:#181818;stroke-width:1.5;" width="52" x="469" y="1089.6406"/><text fill="#000000" font-family="sans-serif" font-size="14" lengthAdjust="spacing" textLength="32" x="479" y="1112.6357">User</text><rect fill="#FFC0CB" height="36.2969" rx="12.5" ry="12.5" style="stroke:#181818;stroke-width:1.5;" width="141" x="571" y="1089.6406"/><text fill="#000000" font-family="sans-serif" font-size="14" lengthAdjust="spacing" textLength="121" x="581" y="1112.6357">ModifyUserObject</text><path d="M521,1107.7891 L531,1107.7891 C546,1107.7891 546,1107.7891 561,1107.7891 L571,1107.7891 " fill="none" style="stroke:#181818;stroke-width:1.0;"/><path d="M419,1445.5703 L429,1445.5703 C444,1445.5703 444,1107.7891 459,1107.7891 L469,1107.7891 " fill="none" style="stroke:#181818;stroke-width:1.0;"/><rect fill="#FFA500" height="36.2969" rx="12.5" ry="12.5" style="stroke:#181818;stroke-width:1.5;" width="59" x="469" y="1145.9375"/><text fill="#000000" font-family="sans-serif" font-size="14" lengthAdjust="spacing" textLength="39" x="479" y="1168.9326">Order</text><rect fill="#FFC0CB" height="36.2969" rx="12.5" ry="12.5" style="stroke:#181818;stroke-width:1.5;" width="148" x="578" y="1145.9375"/><text fill="#000000" font-family="sans-serif" font-size="14" lengthAdjust="spacing" textLength="128" x="588" y="1168.9326">ModifyOrderObject</text><path d="M528,1164.0859 L538,1164.0859 C553,1164.0859 553,1164.0859 568,1164.0859 L578,1164.0859 " fill="none" style="stroke:#181818;stroke-width:1.0;"/><path d="M419,1445.5703 L429,1445.5703 C444,1445.5703 444,1164.0859 459,1164.0859 L469,1164.0859 " fill="none" style="stroke:#181818;stroke-width:1.0;"/><rect fill="#FFA500" height="36.2969" rx="12.5" ry="12.5" style="stroke:#181818;stroke-width:1.5;" width="60" x="469" y="1258.5313"/><text fill="#000000" font-family="sans-serif" font-size="14" lengthAdjust="spacing" textLength="40" x="479" y="1281.5264">Billing</text><rect fill="#FFC0CB" height="36.2969" rx="12.5" ry="12.5" style="stroke:#181818;stroke-width:1.5;" width="136" x="579" y="1202.2344"/><text fill="#000000" font-family="sans-serif" font-size="14" lengthAdjust="spacing" textLength="116" x="589" y="1225.2295">SetBillingMethod</text><path d="M529,1276.6797 L539,1276.6797 C554,1276.6797 554,1220.3828 569,1220.3828 L579,1220.3828 " fill="none" style="stroke:#181818;stroke-width:1.0;"/><rect fill="#FFC0CB" height="36.2969" rx="12.5" ry="12.5" style="stroke:#181818;stroke-width:1.5;" width="107" x="579" y="1258.5313"/><text fill="#000000" font-family="sans-serif" font-size="14" lengthAdjust="spacing" textLength="87" x="589" y="1281.5264">ApplyRefund</text><path d="M529,1276.6797 L539,1276.6797 C554,1276.6797 554,1276.6797 569,1276.6797 L579,1276.6797 " fill="none" style="stroke:#181818;stroke-width:1.0;"/><rect fill="#FFC0CB" height="36.2969" rx="12.5" ry="12.5" style="stroke:#181818;stroke-width:1.5;" width="149" x="579" y="1314.8281"/><text fill="#000000" font-family="sans-serif" font-size="14" lengthAdjust="spacing" textLength="129" x="589" y="1337.8232">ModifyBillingObject</text><path d="M529,1276.6797 L539,1276.6797 C554,1276.6797 554,1332.9766 569,1332.9766 L579,1332.9766 " fill="none" style="stroke:#181818;stroke-width:1.0;"/><path d="M419,1445.5703 L429,1445.5703 C444,1445.5703 444,1276.6797 459,1276.6797 L469,1276.6797 " fill="none" style="stroke:#181818;stroke-width:1.0;"/><rect fill="#FFA500" height="36.2969" rx="12.5" ry="12.5" style="stroke:#181818;stroke-width:1.5;" width="62" x="469" y="1371.125"/><text fill="#000000" font-family="sans-serif" font-size="14" lengthAdjust="spacing" textLength="42" x="479" y="1394.1201">Ticket</text><rect fill="#FFC0CB" height="36.2969" rx="12.5" ry="12.5" style="stroke:#181818;stroke-width:1.5;" width="151" x="581" y="1371.125"/><text fill="#000000" font-family="sans-serif" font-size="14" lengthAdjust="spacing" textLength="131" x="591" y="1394.1201">ModifyTicketObject</text><path d="M531,1389.2734 L541,1389.2734 C556,1389.2734 556,1389.2734 571,1389.2734 L581,1389.2734 " fill="none" style="stroke:#181818;stroke-width:1.0;"/><path d="M419,1445.5703 L429,1445.5703 C444,1445.5703 444,1389.2734 459,1389.2734 L469,1389.2734 " fill="none" style="stroke:#181818;stroke-width:1.0;"/><rect fill="#FFA500" height="36.2969" rx="12.5" ry="12.5" style="stroke:#181818;stroke-width:1.5;" width="69" x="469" y="1483.7188"/><text fill="#000000" font-family="sans-serif" font-size="14" lengthAdjust="spacing" textLength="49" x="479" y="1506.7139">Cluster</text><rect fill="#FFC0CB" height="36.2969" rx="12.5" ry="12.5" style="stroke:#181818;stroke-width:1.5;" width="136" x="588" y="1427.4219"/><text fill="#000000" font-family="sans-serif" font-size="14" lengthAdjust="spacing" textLength="116" x="598" y="1450.417">SetClusterToken</text><path d="M538,1501.8672 L548,1501.8672 C563,1501.8672 563,1445.5703 578,1445.5703 L588,1445.5703 " fill="none" style="stroke:#181818;stroke-width:1.0;"/><rect fill="#FFC0CB" height="36.2969" rx="12.5" ry="12.5" style="stroke:#181818;stroke-width:1.5;" width="126" x="588" y="1483.7188"/><text fill="#000000" font-family="sans-serif" font-size="14" lengthAdjust="spacing" textLength="106" x="598" y="1506.7139">RemoveCluster</text><path d="M538,1501.8672 L548,1501.8672 C563,1501.8672 563,1501.8672 578,1501.8672 L588,1501.8672 " fill="none" style="stroke:#181818;stroke-width:1.0;"/><rect fill="#FFC0CB" height="36.2969" rx="12.5" ry="12.5" style="stroke:#181818;stroke-width:1.5;" width="158" x="588" y="1540.0156"/><text fill="#000000" font-family="sans-serif" font-size="14" lengthAdjust="spacing" textLength="138" x="598" y="1563.0107">ModifyClusterObject</text><path d="M538,1501.8672 L548,1501.8672 C563,1501.8672 563,1558.1641 578,1558.1641 L588,1558.1641 " fill="none" style="stroke:#181818;stroke-width:1.0;"/><path d="M419,1445.5703 L429,1445.5703 C444,1445.5703 444,1501.8672 459,1501.8672 L469,1501.8672 " fill="none" style="stroke:#181818;stroke-width:1.0;"/><rect fill="#FFA500" height="36.2969" rx="12.5" ry="12.5" style="stroke:#181818;stroke-width:1.5;" width="70" x="469" y="1624.4609"/><text fill="#000000" font-family="sans-serif" font-size="14" lengthAdjust="spacing" textLength="50" x="479" y="1647.4561">Service</text><rect fill="#FFC0CB" height="36.2969" rx="12.5" ry="12.5" style="stroke:#181818;stroke-width:1.5;" width="159" x="589" y="1596.3125"/><text fill="#000000" font-family="sans-serif" font-size="14" lengthAdjust="spacing" textLength="139" x="599" y="1619.3076">ModifyServiceObject</text><path d="M539,1642.6094 L549,1642.6094 C564,1642.6094 564,1614.4609 579,1614.4609 L589,1614.4609 " fill="none" style="stroke:#181818;stroke-width:1.0;"/><rect fill="#FFC0CB" height="36.2969" rx="12.5" ry="12.5" style="stroke:#181818;stroke-width:1.5;" width="116" x="589" y="1652.6094"/><text fill="#000000" font-family="sans-serif" font-size="14" lengthAdjust="spacing" textLength="96" x="599" y="1675.6045">DeleteService</text><path d="M539,1642.6094 L549,1642.6094 C564,1642.6094 564,1670.7578 579,1670.7578 L589,1670.7578 " fill="none" style="stroke:#181818;stroke-width:1.0;"/><path d="M419,1445.5703 L429,1445.5703 C444,1445.5703 444,1642.6094 459,1642.6094 L469,1642.6094 " fill="none" style="stroke:#181818;stroke-width:1.0;"/><rect fill="#FFA500" height="36.2969" rx="12.5" ry="12.5" style="stroke:#181818;stroke-width:1.5;" width="135" x="469" y="1737.0547"/><text fill="#000000" font-family="sans-serif" font-size="14" lengthAdjust="spacing" textLength="115" x="479" y="1760.0498">ServiceTemplate</text><rect fill="#FFC0CB" height="36.2969" rx="12.5" ry="12.5" style="stroke:#181818;stroke-width:1.5;" width="224" x="654" y="1708.9063"/><text fill="#000000" font-family="sans-serif" font-size="14" lengthAdjust="spacing" textLength="204" x="664" y="1731.9014">ModifyServiceTemplateObject</text><path d="M604,1755.2031 L614,1755.2031 C629,1755.2031 629,1727.0547 644,1727.0547 L654,1727.0547 " fill="none" style="stroke:#181818;stroke-width:1.0;"/><rect fill="#FFC0CB" height="36.2969" rx="12.5" ry="12.5" style="stroke:#181818;stroke-width:1.5;" width="181" x="654" y="1765.2031"/><text fill="#000000" font-family="sans-serif" font-size="14" lengthAdjust="spacing" textLength="161" x="664" y="1788.1982">DeleteServiceTemplate</text><path d="M604,1755.2031 L614,1755.2031 C629,1755.2031 629,1783.3516 644,1783.3516 L654,1783.3516 " fill="none" style="stroke:#181818;stroke-width:1.0;"/><path d="M419,1445.5703 L429,1445.5703 C444,1445.5703 444,1755.2031 459,1755.2031 L469,1755.2031 " fill="none" style="stroke:#181818;stroke-width:1.0;"/><path d="M294,1698.9063 L304,1698.9063 C319,1698.9063 319,1445.5703 334,1445.5703 L344,1445.5703 " fill="none" style="stroke:#181818;stroke-width:1.0;"/><rect fill="#FFA500" height="36.2969" rx="12.5" ry="12.5" style="stroke:#181818;stroke-width:1.5;" width="66" x="344" y="2046.6875"/><text fill="#000000" font-family="sans-serif" font-size="14" lengthAdjust="spacing" textLength="46" x="354" y="2069.6826">Statics</text><rect fill="#FFC0CB" height="36.2969" rx="12.5" ry="12.5" style="stroke:#181818;stroke-width:1.5;" width="77" x="460" y="1821.5"/><text fill="#000000" font-family="sans-serif" font-size="14" lengthAdjust="spacing" textLength="57" x="470" y="1844.4951">GetUser</text><path d="M410,2064.8359 L420,2064.8359 C435,2064.8359 435,1839.6484 450,1839.6484 L460,1839.6484 " fill="none" style="stroke:#181818;stroke-width:1.0;"/><rect fill="#FFC0CB" height="36.2969" rx="12.5" ry="12.5" style="stroke:#181818;stroke-width:1.5;" width="84" x="460" y="1877.7969"/><text fill="#000000" font-family="sans-serif" font-size="14" lengthAdjust="spacing" textLength="64" x="470" y="1900.792">GetOrder</text><path d="M410,2064.8359 L420,2064.8359 C435,2064.8359 435,1895.9453 450,1895.9453 L460,1895.9453 " fill="none" style="stroke:#181818;stroke-width:1.0;"/><rect fill="#FFC0CB" height="36.2969" rx="12.5" ry="12.5" style="stroke:#181818;stroke-width:1.5;" width="131" x="460" y="1934.0938"/><text fill="#000000" font-family="sans-serif" font-size="14" lengthAdjust="spacing" textLength="111" x="470" y="1957.0889">GetBillingStatics</text><path d="M410,2064.8359 L420,2064.8359 C435,2064.8359 435,1952.2422 450,1952.2422 L460,1952.2422 " fill="none" style="stroke:#181818;stroke-width:1.0;"/><rect fill="#FFC0CB" height="36.2969" rx="12.5" ry="12.5" style="stroke:#181818;stroke-width:1.5;" width="85" x="460" y="1990.3906"/><text fill="#000000" font-family="sans-serif" font-size="14" lengthAdjust="spacing" textLength="65" x="470" y="2013.3857">GetBilling</text><path d="M410,2064.8359 L420,2064.8359 C435,2064.8359 435,2008.5391 450,2008.5391 L460,2008.5391 " fill="none" style="stroke:#181818;stroke-width:1.0;"/><rect fill="#FFC0CB" height="36.2969" rx="12.5" ry="12.5" style="stroke:#181818;stroke-width:1.5;" width="87" x="460" y="2046.6875"/><text fill="#000000" font-family="sans-serif" font-size="14" lengthAdjust="spacing" textLength="67" x="470" y="2069.6826">GetTicket</text><path d="M410,2064.8359 L420,2064.8359 C435,2064.8359 435,2064.8359 450,2064.8359 L460,2064.8359 " fill="none" style="stroke:#181818;stroke-width:1.0;"/><rect fill="#FFC0CB" height="36.2969" rx="12.5" ry="12.5" style="stroke:#181818;stroke-width:1.5;" width="94" x="460" y="2102.9844"/><text fill="#000000" font-family="sans-serif" font-size="14" lengthAdjust="spacing" textLength="74" x="470" y="2125.9795">GetCluster</text><path d="M410,2064.8359 L420,2064.8359 C435,2064.8359 435,2121.1328 450,2121.1328 L460,2121.1328 " fill="none" style="stroke:#181818;stroke-width:1.0;"/><rect fill="#FFC0CB" height="36.2969" rx="12.5" ry="12.5" style="stroke:#181818;stroke-width:1.5;" width="138" x="460" y="2159.2813"/><text fill="#000000" font-family="sans-serif" font-size="14" lengthAdjust="spacing" textLength="118" x="470" y="2182.2764">GetClusterStatus</text><path d="M410,2064.8359 L420,2064.8359 C435,2064.8359 435,2177.4297 450,2177.4297 L460,2177.4297 " fill="none" style="stroke:#181818;stroke-width:1.0;"/><rect fill="#FFC0CB" height="36.2969" rx="12.5" ry="12.5" style="stroke:#181818;stroke-width:1.5;" width="95" x="460" y="2215.5781"/><text fill="#000000" font-family="sans-serif" font-size="14" lengthAdjust="spacing" textLength="75" x="470" y="2238.5732">GetService</text><path d="M410,2064.8359 L420,2064.8359 C435,2064.8359 435,2233.7266 450,2233.7266 L460,2233.7266 " fill="none" style="stroke:#181818;stroke-width:1.0;"/><rect fill="#FFC0CB" height="36.2969" rx="12.5" ry="12.5" style="stroke:#181818;stroke-width:1.5;" width="139" x="460" y="2271.875"/><text fill="#000000" font-family="sans-serif" font-size="14" lengthAdjust="spacing" textLength="119" x="470" y="2294.8701">GetServiceStatus</text><path d="M410,2064.8359 L420,2064.8359 C435,2064.8359 435,2290.0234 450,2290.0234 L460,2290.0234 " fill="none" style="stroke:#181818;stroke-width:1.0;"/><path d="M294,1698.9063 L304,1698.9063 C319,1698.9063 319,2064.8359 334,2064.8359 L344,2064.8359 " fill="none" style="stroke:#181818;stroke-width:1.0;"/><path d="M122,1164.0859 L132,1164.0859 C147,1164.0859 147,1698.9063 162,1698.9063 L172,1698.9063 " fill="none" style="stroke:#181818;stroke-width:1.0;"/><!--SRC=[bPPDR-8m48Rl-HMMzj9MscwXMcs5gbKfRD5MH4LyzBBgmSH3y69irXc3-FTho4UXiPEKMpGFxqmyCw_pa23LkEQIhUack29JJMNIfqYxezy1iR-hFry4ZvSu5mRUo2m1FQ08Exe_Hij4I2MDeGYw9Sx2fqYi0UGR6G1ErGfa7JU6c2TOhpU61714asIdDAkexKMpUh6He14q8djKHY3Aw7dIHou4bt5jMhfVWyIFfr_Mc_9e1LWd5oh65ti7Uous0Rtb4NZLKker_7Pl36S_Ivop6NEbi0avMHfaQYURi8yDDMrsmmMxLqd3OlyPI70CQxMbekOOHahZaz8xgfbjw2UE96r64x8F0X0ykpT1YZnAWkhDAYrW6V6Fx3lZ6bl76li7x1tAXomt76LDABRlqsNMc1nsayVTNfD7VKQpuNAL7_c1UPd_XGXzAjv5FvKvGjKw5LkUAasA8mq1buhvoUvc8_PZM1Z9wWhB5AjBynl6gLHALIlrXF7PSV6I6UFrznGyBXpKwgMbPLXrRHLETggLOGwjCpZTGvTcEUKKrXj1iMdg7FzK2QKSfsMuRI5LyHX24NHQGH7DvgikWyShYhZR9OgmQmmSyKCLnb-4fraVuvdA0qYMVnO5zigNE0k7P0iwuKgIrdNxfdrxtRgz2ErJ7oBIQf7MNQTzq_d-WyocFNA8NmONWz6G9Che20YpdogQpmrQWSlWcMuf6Hk9V0qT8eqGmVDhs24JCxUOxQIzL8C-BAWHI7x9I1skb8wLVlfw5mnjOusrlkoFFMLrz3vz-Wy0]--></g></svg>