<?xml version="1.0" encoding="us-ascii" standalone="no"?><svg xmlns="http://www.w3.org/2000/svg" xmlns:xlink="http://www.w3.org/1999/xlink" contentStyleType="text/css" height="2330px" preserveAspectRatio="none" style="width:890px;height:2330px;background:#FFFFFF;" version="1.1" viewBox="0 0 890 2330" width="890px" zoomAndPan="magnify"><defs/><g><rect fill="#F1F1F1" height="36.2969" rx="12.5" ry="12.5" style="stroke:#181818;stroke-width:1.5;" width="112" x="10" y="1145.9375"/><text fill="#000000" font-family="sans-serif" font-size="14" lengthAdjust="spacing" textLength="92" x="20" y="1168.9326">TransDataAPI</text><rect fill="#00FF00" height="36.2969" rx="12.5" ry="12.5" style="stroke:#181818;stroke-width:1.5;" width="79" x="172" y="1145.9375"/><text fill="#000000" font-family="sans-serif" font-size="14" lengthAdjust="spacing" textLength="59" x="182" y="1168.9326">Gateway</text><rect fill="#ADD8E6" height="36.2969" rx="12.5" ry="12.5" style="stroke:#181818;stroke-width:1.5;" width="75" x="301" y="385.9297"/><text fill="#000000" font-family="sans-serif" font-size="14" lengthAdjust="spacing" textLength="55" x="311" y="408.9248">Manage</text><rect fill="#ADD8E6" height="36.2969" rx="12.5" ry="12.5" style="stroke:#181818;stroke-width:1.5;" width="52" x="426" y="76.2969"/><text fill="#000000" font-family="sans-serif" font-size="14" lengthAdjust="spacing" textLength="32" x="436" y="99.292">User</text><rect fill="#90EE90" height="36.2969" rx="12.5" ry="12.5" style="stroke:#181818;stroke-width:1.5;" width="89" x="528" y="20"/><text fill="#000000" font-family="sans-serif" font-size="14" lengthAdjust="spacing" textLength="69" x="538" y="42.9951">GetToken</text><path d="M478,94.4453 L488,94.4453 C503,94.4453 503,38.1484 518,38.1484 L528,38.1484 " fill="none" style="stroke:#181818;stroke-width:1.0;"/><rect fill="#90EE90" height="36.2969" rx="12.5" ry="12.5" style="stroke:#181818;stroke-width:1.5;" width="78" x="528" y="76.2969"/><text fill="#000000" font-family="sans-serif" font-size="14" lengthAdjust="spacing" textLength="58" x="538" y="99.292">Register</text><path d="M478,94.4453 L488,94.4453 C503,94.4453 503,94.4453 518,94.4453 L528,94.4453 " fill="none" style="stroke:#181818;stroke-width:1.0;"/><rect fill="#90EE90" height="36.2969" rx="12.5" ry="12.5" style="stroke:#181818;stroke-width:1.5;" width="128" x="528" y="132.5938"/><text fill="#000000" font-family="sans-serif" font-size="14" lengthAdjust="spacing" textLength="108" x="538" y="155.5889">ResetPassword</text><path d="M478,94.4453 L488,94.4453 C503,94.4453 503,150.7422 518,150.7422 L528,150.7422 " fill="none" style="stroke:#181818;stroke-width:1.0;"/><path d="M376,404.0781 L386,404.0781 C401,404.0781 401,94.4453 416,94.4453 L426,94.4453 " fill="none" style="stroke:#181818;stroke-width:1.0;"/><rect fill="#ADD8E6" height="36.2969" rx="12.5" ry="12.5" style="stroke:#181818;stroke-width:1.5;" width="59" x="426" y="217.0391"/><text fill="#000000" font-family="sans-serif" font-size="14" lengthAdjust="spacing" textLength="39" x="436" y="240.0342">Order</text><rect fill="#90EE90" height="36.2969" rx="12.5" ry="12.5" style="stroke:#181818;stroke-width:1.5;" width="96" x="535" y="188.8906"/><text fill="#000000" font-family="sans-serif" font-size="14" lengthAdjust="spacing" textLength="76" x="545" y="211.8857">PlaceOrder</text><path d="M485,235.1875 L495,235.1875 C510,235.1875 510,207.0391 525,207.0391 L535,207.0391 " fill="none" style="stroke:#181818;stroke-width:1.0;"/><rect fill="#90EE90" height="36.2969" rx="12.5" ry="12.5" style="stroke:#181818;stroke-width:1.5;" width="106" x="535" y="245.1875"/><text fill="#000000" font-family="sans-serif" font-size="14" lengthAdjust="spacing" textLength="86" x="545" y="268.1826">CancelOrder</text><path d="M485,235.1875 L495,235.1875 C510,235.1875 510,263.3359 525,263.3359 L535,263.3359 " fill="none" style="stroke:#181818;stroke-width:1.0;"/><path d="M376,404.0781 L386,404.0781 C401,404.0781 401,235.1875 416,235.1875 L426,235.1875 " fill="none" style="stroke:#181818;stroke-width:1.0;"/><rect fill="#ADD8E6" height="36.2969" rx="12.5" ry="12.5" style="stroke:#181818;stroke-width:1.5;" width="60" x="426" y="301.4844"/><text fill="#000000" font-family="sans-serif" font-size="14" lengthAdjust="spacing" textLength="40" x="436" y="324.4795">Billing</text><rect fill="#90EE90" height="36.2969" rx="12.5" ry="12.5" style="stroke:#181818;stroke-width:1.5;" width="139" x="536" y="301.4844"/><text fill="#000000" font-family="sans-serif" font-size="14" lengthAdjust="spacing" textLength="119" x="546" y="324.4795">PaymentGateway</text><path d="M486,319.6328 L496,319.6328 C511,319.6328 511,319.6328 526,319.6328 L536,319.6328 " fill="none" style="stroke:#181818;stroke-width:1.0;"/><path d="M376,404.0781 L386,404.0781 C401,404.0781 401,319.6328 416,319.6328 L426,319.6328 " fill="none" style="stroke:#181818;stroke-width:1.0;"/><rect fill="#ADD8E6" height="36.2969" rx="12.5" ry="12.5" style="stroke:#181818;stroke-width:1.5;" width="62" x="426" y="357.7813"/><text fill="#000000" font-family="sans-serif" font-size="14" lengthAdjust="spacing" textLength="42" x="436" y="380.7764">Ticket</text><rect fill="#90EE90" height="36.2969" rx="12.5" ry="12.5" style="stroke:#181818;stroke-width:1.5;" width="106" x="538" y="357.7813"/><text fill="#000000" font-family="sans-serif" font-size="14" lengthAdjust="spacing" textLength="86" x="548" y="380.7764">ModifyTicket</text><path d="M488,375.9297 L498,375.9297 C513,375.9297 513,375.9297 528,375.9297 L538,375.9297 " fill="none" style="stroke:#181818;stroke-width:1.0;"/><path d="M376,404.0781 L386,404.0781 C401,404.0781 401,375.9297 416,375.9297 L426,375.9297 " fill="none" style="stroke:#181818;stroke-width:1.0;"/><rect fill="#ADD8E6" height="36.2969" rx="12.5" ry="12.5" style="stroke:#181818;stroke-width:1.5;" width="70" x="426" y="582.9688"/><text fill="#000000" font-family="sans-serif" font-size="14" lengthAdjust="spacing" textLength="50" x="436" y="605.9639">Service</text><rect fill="#ADD8E6" height="36.2969" rx="12.5" ry="12.5" style="stroke:#181818;stroke-width:1.5;" width="100" x="546" y="526.6719"/><text fill="#000000" font-family="sans-serif" font-size="14" lengthAdjust="spacing" textLength="80" x="556" y="549.667">VM/&lt;uuid&gt;</text><rect fill="#90EE90" height="36.2969" rx="12.5" ry="12.5" style="stroke:#181818;stroke-width:1.5;" width="71" x="696" y="414.0781"/><text fill="#000000" font-family="sans-serif" font-size="14" lengthAdjust="spacing" textLength="51" x="706" y="437.0732">Reboot</text><path d="M646,544.8203 L656,544.8203 C671,544.8203 671,432.2266 686,432.2266 L696,432.2266 " fill="none" style="stroke:#181818;stroke-width:1.0;"/><rect fill="#90EE90" height="36.2969" rx="12.5" ry="12.5" style="stroke:#181818;stroke-width:1.5;" width="90" x="696" y="470.375"/><text fill="#000000" font-family="sans-serif" font-size="14" lengthAdjust="spacing" textLength="70" x="706" y="493.3701">Shutdown</text><path d="M646,544.8203 L656,544.8203 C671,544.8203 671,488.5234 686,488.5234 L696,488.5234 " fill="none" style="stroke:#181818;stroke-width:1.0;"/><rect fill="#90EE90" height="36.2969" rx="12.5" ry="12.5" style="stroke:#181818;stroke-width:1.5;" width="53" x="696" y="526.6719"/><text fill="#000000" font-family="sans-serif" font-size="14" lengthAdjust="spacing" textLength="33" x="706" y="549.667">Boot</text><path d="M646,544.8203 L656,544.8203 C671,544.8203 671,544.8203 686,544.8203 L696,544.8203 " fill="none" style="stroke:#181818;stroke-width:1.0;"/><rect fill="#90EE90" height="36.2969" rx="12.5" ry="12.5" style="stroke:#181818;stroke-width:1.5;" width="113" x="696" y="582.9688"/><text fill="#000000" font-family="sans-serif" font-size="14" lengthAdjust="spacing" textLength="93" x="706" y="605.9639">Rebuild&lt;os&gt;</text><path d="M646,544.8203 L656,544.8203 C671,544.8203 671,601.1172 686,601.1172 L696,601.1172 " fill="none" style="stroke:#181818;stroke-width:1.0;"/><rect fill="#90EE90" height="36.2969" rx="12.5" ry="12.5" style="stroke:#181818;stroke-width:1.5;" width="138" x="696" y="639.2656"/><text fill="#000000" font-family="sans-serif" font-size="14" lengthAdjust="spacing" textLength="118" x="706" y="662.2607">RequestRemoval</text><path d="M646,544.8203 L656,544.8203 C671,544.8203 671,657.4141 686,657.4141 L696,657.4141 " fill="none" style="stroke:#181818;stroke-width:1.0;"/><path d="M496,601.1172 L506,601.1172 C521,601.1172 521,544.8203 536,544.8203 L546,544.8203 " fill="none" style="stroke:#181818;stroke-width:1.0;"/><rect fill="#ADD8E6" height="36.2969" rx="12.5" ry="12.5" style="stroke:#181818;stroke-width:1.5;" width="183" x="546" y="723.7109"/><text fill="#000000" font-family="sans-serif" font-size="14" lengthAdjust="spacing" textLength="163" x="556" y="746.7061">PortForwarding/&lt;uuid&gt;</text><rect fill="#90EE90" height="36.2969" rx="12.5" ry="12.5" style="stroke:#181818;stroke-width:1.5;" width="64" x="779" y="695.5625"/><text fill="#000000" font-family="sans-serif" font-size="14" lengthAdjust="spacing" textLength="44" x="789" y="718.5576">Modify</text><path d="M729,741.8594 L739,741.8594 C754,741.8594 754,713.7109 769,713.7109 L779,713.7109 " fill="none" style="stroke:#181818;stroke-width:1.0;"/><rect fill="#90EE90" height="36.2969" rx="12.5" ry="12.5" style="stroke:#181818;stroke-width:1.5;" width="66" x="779" y="751.8594"/><text fill="#000000" font-family="sans-serif" font-size="14" lengthAdjust="spacing" textLength="46" x="789" y="774.8545">Delete</text><path d="M729,741.8594 L739,741.8594 C754,741.8594 754,770.0078 769,770.0078 L779,770.0078 " fill="none" style="stroke:#181818;stroke-width:1.0;"/><path d="M496,601.1172 L506,601.1172 C521,601.1172 521,741.8594 536,741.8594 L546,741.8594 " fill="none" style="stroke:#181818;stroke-width:1.0;"/><path d="M376,404.0781 L386,404.0781 C401,404.0781 401,601.1172 416,601.1172 L426,601.1172 " fill="none" style="stroke:#181818;stroke-width:1.0;"/><path d="M251,1164.0859 L261,1164.0859 C276,1164.0859 276,404.0781 291,404.0781 L301,404.0781 " fill="none" style="stroke:#181818;stroke-width:1.0;"/><rect fill="#ADD8E6" height="36.2969" rx="12.5" ry="12.5" style="stroke:#181818;stroke-width:1.5;" width="66" x="301" y="920.75"/><text fill="#000000" font-family="sans-serif" font-size="14" lengthAdjust="spacing" textLength="46" x="311" y="943.7451">Statics</text><rect fill="#90EE90" height="36.2969" rx="12.5" ry="12.5" style="stroke:#181818;stroke-width:1.5;" width="77" x="417" y="808.1563"/><text fill="#000000" font-family="sans-serif" font-size="14" lengthAdjust="spacing" textLength="57" x="427" y="831.1514">GetUser</text><path d="M367,938.8984 L377,938.8984 C392,938.8984 392,826.3047 407,826.3047 L417,826.3047 " fill="none" style="stroke:#181818;stroke-width:1.0;"/><rect fill="#90EE90" height="36.2969" rx="12.5" ry="12.5" style="stroke:#181818;stroke-width:1.5;" width="84" x="417" y="864.4531"/><text fill="#000000" font-family="sans-serif" font-size="14" lengthAdjust="spacing" textLength="64" x="427" y="887.4482">GetOrder</text><path d="M367,938.8984 L377,938.8984 C392,938.8984 392,882.6016 407,882.6016 L417,882.6016 " fill="none" style="stroke:#181818;stroke-width:1.0;"/><rect fill="#90EE90" height="36.2969" rx="12.5" ry="12.5" style="stroke:#181818;stroke-width:1.5;" width="85" x="417" y="920.75"/><text fill="#000000" font-family="sans-serif" font-size="14" lengthAdjust="spacing" textLength="65" x="427" y="943.7451">GetBilling</text><path d="M367,938.8984 L377,938.8984 C392,938.8984 392,938.8984 407,938.8984 L417,938.8984 " fill="none" style="stroke:#181818;stroke-width:1.0;"/><rect fill="#90EE90" height="36.2969" rx="12.5" ry="12.5" style="stroke:#181818;stroke-width:1.5;" width="87" x="417" y="977.0469"/><text fill="#000000" font-family="sans-serif" font-size="14" lengthAdjust="spacing" textLength="67" x="427" y="1000.042">GetTicket</text><path d="M367,938.8984 L377,938.8984 C392,938.8984 392,995.1953 407,995.1953 L417,995.1953 " fill="none" style="stroke:#181818;stroke-width:1.0;"/><rect fill="#90EE90" height="36.2969" rx="12.5" ry="12.5" style="stroke:#181818;stroke-width:1.5;" width="95" x="417" y="1033.3438"/><text fill="#000000" font-family="sans-serif" font-size="14" lengthAdjust="spacing" textLength="75" x="427" y="1056.3389">GetService</text><path d="M367,938.8984 L377,938.8984 C392,938.8984 392,1051.4922 407,1051.4922 L417,1051.4922 " fill="none" style="stroke:#181818;stroke-width:1.0;"/><path d="M251,1164.0859 L261,1164.0859 C276,1164.0859 276,938.8984 291,938.8984 L301,938.8984 " fill="none" style="stroke:#181818;stroke-width:1.0;"/><rect fill="#FFA500" height="36.2969" rx="12.5" ry="12.5" style="stroke:#181818;stroke-width:1.5;" width="118" x="301" y="1427.4219"/><text fill="#000000" font-family="sans-serif" font-size="14" lengthAdjust="spacing" textLength="98" x="311" y="1450.417">AdminManage</text><rect fill="#FFA500" height="36.2969" rx="12.5" ry="12.5" style="stroke:#181818;stroke-width:1.5;" width="52" x="469" y="1089.6406"/><text fill="#000000" font-family="sans-serif" font-size="14" lengthAdjust="spacing" textLength="32" x="479" y="1112.6357">User</text><rect fill="#FFC0CB" height="36.2969" rx="12.5" ry="12.5" style="stroke:#181818;stroke-width:1.5;" width="141" x="571" y="1089.6406"/><text fill="#000000" font-family="sans-serif" font-size="14" lengthAdjust="spacing" textLength="121" x="581" y="1112.6357">ModifyUserObject</text><path d="M521,1107.7891 L531,1107.7891 C546,1107.7891 546,1107.7891 561,1107.7891 L571,1107.7891 " fill="none" style="stroke:#181818;stroke-width:1.0;"/><path d="M419,1445.5703 L429,1445.5703 C444,1445.5703 444,1107.7891 459,1107.7891 L469,1107.7891 " fill="none" style="stroke:#181818;stroke-width:1.0;"/><rect fill="#FFA500" height="36.2969" rx="12.5" ry="12.5" style="stroke:#181818;stroke-width:1.5;" width="59" x="469" y="1145.9375"/><text fill="#000000" font-family="sans-serif" font-size="14" lengthAdjust="spacing" textLength="39" x="479" y="1168.9326">Order</text><rect fill="#FFC0CB" height="36.2969" rx="12.5" ry="12.5" style="stroke:#181818;stroke-width:1.5;" width="148" x="578" y="1145.9375"/><text fill="#000000" font-family="sans-serif" font-size="14" lengthAdjust="spacing" textLength="128" x="588" y="1168.9326">ModifyOrderObject</text><path d="M528,1164.0859 L538,1164.0859 C553,1164.0859 553,1164.0859 568,1164.0859 L578,1164.0859 " fill="none" style="stroke:#181818;stroke-width:1.0;"/><path d="M419,1445.5703 L429,1445.5703 C444,1445.5703 444,1164.0859 459,1164.0859 L469,1164.0859 " fill="none" style="stroke:#181818;stroke-width:1.0;"/><rect fill="#FFA500" height="36.2969" rx="12.5" ry="12.5" style="stroke:#181818;stroke-width:1.5;" width="60" x="469" y="1258.5313"/><text fill="#000000" font-family="sans-serif" font-size="14" lengthAdjust="spacing" textLength="40" x="479" y="1281.5264">Billing</text><rect fill="#FFC0CB" height="36.2969" rx="12.5" ry="12.5" style="stroke:#181818;stroke-width:1.5;" width="136" x="579" y="1202.2344"/><text fill="#000000" font-family="sans-serif" font-size="14" lengthAdjust="spacing" textLength="116" x="589" y="1225.2295">SetBillingMethod</text><path d="M529,1276.6797 L539,1276.6797 C554,1276.6797 554,1220.3828 569,1220.3828 L579,1220.3828 " fill="none" style="stroke:#181818;stroke-width:1.0;"/><rect fill="#FFC0CB" height="36.2969" rx="12.5" ry="12.5" style="stroke:#181818;stroke-width:1.5;" width="107" x="579" y="1258.5313"/><text fill="#000000" font-family="sans-serif" font-size="14" lengthAdjust="spacing" textLength="87" x="589" y="1281.5264">ApplyRefund</text><path d="M529,1276.6797 L539,1276.6797 C554,1276.6797 554,1276.6797 569,1276.6797 L579,1276.6797 " fill="none" style="stroke:#181818;stroke-width:1.0;"/><rect fill="#FFC0CB" height="36.2969" rx="12.5" ry="12.5" style="stroke:#181818;stroke-width:1.5;" width="149" x="579" y="1314.8281"/><text fill="#000000" font-family="sans-serif" font-size="14" lengthAdjust="spacing" textLength="129" x="589" y="1337.8232">ModifyBillingObject</text><path d="M529,1276.6797 L539,1276.6797 C554,1276.6797 554,1332.9766 569,1332.9766 L579,1332.9766 " fill="none" style="stroke:#181818;stroke-width:1.0;"/><path d="M419,1445.5703 L429,1445.5703 C444,1445.5703 444,1276.6797 459,1276.6797 L469,1276.6797 " fill="none" style="stroke:#181818;stroke-width:1.0;"/><rect fill="#FFA500" height="36.2969" rx="12.5" ry="12.5" style="stroke:#181818;stroke-width:1.5;" width="62" x="469" y="1371.125"/><text fill="#000000" font-family="sans-serif" font-size="14" lengthAdjust="spacing" textLength="42" x="479" y="1394.1201">Ticket</text><rect fill="#FFC0CB" height="36.2969" rx="12.5" ry="12.5" style="stroke:#181818;stroke-width:1.5;" width="151" x="581" y="1371.125"/><text fill="#000000" font-family="sans-serif" font-size="14" lengthAdjust="spacing" textLength="131" x="591" y="1394.1201">ModifyTicketObject</text><path d="M531,1389.2734 L541,1389.2734 C556,1389.2734 556,1389.2734 571,1389.2734 L581,1389.2734 " fill="none" style="stroke:#181818;stroke-width:1.0;"/><path d="M419,1445.5703 L429,1445.5703 C444,1445.5703 444,1389.2734 459,1389.2734 L469,1389.2734 " fill="none" style="stroke:#181818;stroke-width:1.0;"/><rect fill="#FFA500" height="36.2969" rx="12.5" ry="12.5" style="stroke:#181818;stroke-width:1.5;" width="69" x="469" y="1483.7188"/><text fill="#000000" font-family="sans-serif" font-size="14" lengthAdjust="spacing" textLength="49" x="479" y="1506.7139">Cluster</text><rect fill="#FFC0CB" height="36.2969" rx="12.5" ry="12.5" style="stroke:#181818;stroke-width:1.5;" width="136" x="588" y="1427.4219"/><text fill="#000000" font-family="sans-serif" font-size="14" lengthAdjust="spacing" textLength="116" x="598" y="1450.417">SetClusterToken</text><path d="M538,1501.8672 L548,1501.8672 C563,1501.8672 563,1445.5703 578,1445.5703 L588,1445.5703 " fill="none" style="stroke:#181818;stroke-width:1.0;"/><rect fill="#FFC0CB" height="36.2969" rx="12.5" ry="12.5" style="stroke:#181818;stroke-width:1.5;" width="126" x="588" y="1483.7188"/><text fill="#000000" font-family="sans-serif" font-size="14" lengthAdjust="spacing" textLength="106" x="598" y="1506.7139">RemoveCluster</text><path d="M538,1501.8672 L548,1501.8672 C563,1501.8672 563,1501.8672 578,1501.8672 L588,1501.8672 " fill="none" style="stroke:#181818;stroke-width:1.0;"/><rect fill="#FFC0CB" height="36.2969" rx="12.5" ry="12.5" style="stroke:#181818;stroke-width:1.5;" width="158" x="588" y="1540.0156"/><text fill="#000000" font-family="sans-serif" font-size="14" lengthAdjust="spacing" textLength="138" x="598" y="1563.0107">ModifyClusterObject</text><path d="M538,1501.8672 L548,1501.8672 C563,1501.8672 563,1558.1641 578,1558.1641 L588,1558.1641 " fill="none" style="stroke:#181818;stroke-width:1.0;"/><path d="M419,1445.5703 L429,1445.5703 C444,1445.5703 444,1501.8672 459,1501.8672 L469,1501.8672 " fill="none" style="stroke:#181818;stroke-width:1.0;"/><rect fill="#FFA500" height="36.2969" rx="12.5" ry="12.5" style="stroke:#181818;stroke-width:1.5;" width="70" x="469" y="1624.4609"/><text fill="#000000" font-family="sans-serif" font-size="14" lengthAdjust="spacing" textLength="50" x="479" y="1647.4561">Service</text><rect fill="#FFC0CB" height="36.2969" rx="12.5" ry="12.5" style="stroke:#181818;stroke-width:1.5;" width="159" x="589" y="1596.3125"/><text fill="#000000" font-family="sans-serif" font-size="14" lengthAdjust="spacing" textLength="139" x="599" y="1619.3076">ModifyServiceObject</text><path d="M539,1642.6094 L549,1642.6094 C564,1642.6094 564,1614.4609 579,1614.4609 L589,1614.4609 " fill="none" style="stroke:#181818;stroke-width:1.0;"/><rect fill="#FFC0CB" height="36.2969" rx="12.5" ry="12.5" style="stroke:#181818;stroke-width:1.5;" width="116" x="589" y="1652.6094"/><text fill="#000000" font-family="sans-serif" font-size="14" lengthAdjust="spacing" textLength="96" x="599" y="1675.6045">DeleteService</text><path d="M539,1642.6094 L549,1642.6094 C564,1642.6094 564,1670.7578 579,1670.7578 L589,1670.7578 " fill="none" style="stroke:#181818;stroke-width:1.0;"/><path d="M419,1445.5703 L429,1445.5703 C444,1445.5703 444,1642.6094 459,1642.6094 L469,1642.6094 " fill="none" style="stroke:#181818;stroke-width:1.0;"/><rect fill="#FFA500" height="36.2969" rx="12.5" ry="12.5" style="stroke:#181818;stroke-width:1.5;" width="135" x="469" y="1737.0547"/><text fill="#000000" font-family="sans-serif" font-size="14" lengthAdjust="spacing" textLength="115" x="479" y="1760.0498">ServiceTemplate</text><rect fill="#FFC0CB" height="36.2969" rx="12.5" ry="12.5" style="stroke:#181818;stroke-width:1.5;" width="224" x="654" y="1708.9063"/><text fill="#000000" font-family="sans-serif" font-size="14" lengthAdjust="spacing" textLength="204" x="664" y="1731.9014">ModifyServiceTemplateObject</text><path d="M604,1755.2031 L614,1755.2031 C629,1755.2031 629,1727.0547 644,1727.0547 L654,1727.0547 " fill="none" style="stroke:#181818;stroke-width:1.0;"/><rect fill="#FFC0CB" height="36.2969" rx="12.5" ry="12.5" style="stroke:#181818;stroke-width:1.5;" width="181" x="654" y="1765.2031"/><text fill="#000000" font-family="sans-serif" font-size="14" lengthAdjust="spacing" textLength="161" x="664" y="1788.1982">DeleteServiceTemplate</text><path d="M604,1755.2031 L614,1755.2031 C629,1755.2031 629,1783.3516 644,1783.3516 L654,1783.3516 " fill="none" style="stroke:#181818;stroke-width:1.0;"/><path d="M419,1445.5703 L429,1445.5703 C444,1445.5703 444,1755.2031 459,1755.2031 L469,1755.2031 " fill="none" style="stroke:#181818;stroke-width:1.0;"/><path d="M251,1164.0859 L261,1164.0859 C276,1164.0859 276,1445.5703 291,1445.5703 L301,1445.5703 " fill="none" style="stroke:#181818;stroke-width:1.0;"/><rect fill="#FFA500" height="36.2969" rx="12.5" ry="12.5" style="stroke:#181818;stroke-width:1.5;" width="109" x="301" y="2046.6875"/><text fill="#000000" font-family="sans-serif" font-size="14" lengthAdjust="spacing" textLength="89" x="311" y="2069.6826">AdminStatics</text><rect fill="#FFC0CB" height="36.2969" rx="12.5" ry="12.5" style="stroke:#181818;stroke-width:1.5;" width="77" x="460" y="1821.5"/><text fill="#000000" font-family="sans-serif" font-size="14" lengthAdjust="spacing" textLength="57" x="470" y="1844.4951">GetUser</text><path d="M410,2064.8359 L420,2064.8359 C435,2064.8359 435,1839.6484 450,1839.6484 L460,1839.6484 " fill="none" style="stroke:#181818;stroke-width:1.0;"/><rect fill="#FFC0CB" height="36.2969" rx="12.5" ry="12.5" style="stroke:#181818;stroke-width:1.5;" width="84" x="460" y="1877.7969"/><text fill="#000000" font-family="sans-serif" font-size="14" lengthAdjust="spacing" textLength="64" x="470" y="1900.792">GetOrder</text><path d="M410,2064.8359 L420,2064.8359 C435,2064.8359 435,1895.9453 450,1895.9453 L460,1895.9453 " fill="none" style="stroke:#181818;stroke-width:1.0;"/><rect fill="#FFC0CB" height="36.2969" rx="12.5" ry="12.5" style="stroke:#181818;stroke-width:1.5;" width="131" x="460" y="1934.0938"/><text fill="#000000" font-family="sans-serif" font-size="14" lengthAdjust="spacing" textLength="111" x="470" y="1957.0889">GetBillingStatics</text><path d="M410,2064.8359 L420,2064.8359 C435,2064.8359 435,1952.2422 450,1952.2422 L460,1952.2422 " fill="none" style="stroke:#181818;stroke-width:1.0;"/><rect fill="#FFC0CB" height="36.2969" rx="12.5" ry="12.5" style="stroke:#181818;stroke-width:1.5;" width="85" x="460" y="1990.3906"/><text fill="#000000" font-family="sans-serif" font-size="14" lengthAdjust="spacing" textLength="65" x="470" y="2013.3857">GetBilling</text><path d="M410,2064.8359 L420,2064.8359 C435,2064.8359 435,2008.5391 450,2008.5391 L460,2008.5391 " fill="none" style="stroke:#181818;stroke-width:1.0;"/><rect fill="#FFC0CB" height="36.2969" rx="12.5" ry="12.5" style="stroke:#181818;stroke-width:1.5;" width="87" x="460" y="2046.6875"/><text fill="#000000" font-family="sans-serif" font-size="14" lengthAdjust="spacing" textLength="67" x="470" y="2069.6826">GetTicket</text><path d="M410,2064.8359 L420,2064.8359 C435,2064.8359 435,2064.8359 450,2064.8359 L460,2064.8359 " fill="none" style="stroke:#181818;stroke-width:1.0;"/><rect fill="#FFC0CB" height="36.2969" rx="12.5" ry="12.5" style="stroke:#181818;stroke-width:1.5;" width="94" x="460" y="2102.9844"/><text fill="#000000" font-family="sans-serif" font-size="14" lengthAdjust="spacing" textLength="74" x="470" y="2125.9795">GetCluster</text><path d="M410,2064.8359 L420,2064.8359 C435,2064.8359 435,2121.1328 450,2121.1328 L460,2121.1328 " fill="none" style="stroke:#181818;stroke-width:1.0;"/><rect fill="#FFC0CB" height="36.2969" rx="12.5" ry="12.5" style="stroke:#181818;stroke-width:1.5;" width="138" x="460" y="2159.2813"/><text fill="#000000" font-family="sans-serif" font-size="14" lengthAdjust="spacing" textLength="118" x="470" y="2182.2764">GetClusterStatus</text><path d="M410,2064.8359 L420,2064.8359 C435,2064.8359 435,2177.4297 450,2177.4297 L460,2177.4297 " fill="none" style="stroke:#181818;stroke-width:1.0;"/><rect fill="#FFC0CB" height="36.2969" rx="12.5" ry="12.5" style="stroke:#181818;stroke-width:1.5;" width="95" x="460" y="2215.5781"/><text fill="#000000" font-family="sans-serif" font-size="14" lengthAdjust="spacing" textLength="75" x="470" y="2238.5732">GetService</text><path d="M410,2064.8359 L420,2064.8359 C435,2064.8359 435,2233.7266 450,2233.7266 L460,2233.7266 " fill="none" style="stroke:#181818;stroke-width:1.0;"/><rect fill="#FFC0CB" height="36.2969" rx="12.5" ry="12.5" style="stroke:#181818;stroke-width:1.5;" width="139" x="460" y="2271.875"/><text fill="#000000" font-family="sans-serif" font-size="14" lengthAdjust="spacing" textLength="119" x="470" y="2294.8701">GetServiceStatus</text><path d="M410,2064.8359 L420,2064.8359 C435,2064.8359 435,2290.0234 450,2290.0234 L460,2290.0234 " fill="none" style="stroke:#181818;stroke-width:1.0;"/><path d="M251,1164.0859 L261,1164.0859 C276,1164.0859 276,2064.8359 291,2064.8359 L301,2064.8359 " fill="none" style="stroke:#181818;stroke-width:1.0;"/><path d="M122,1164.0859 L132,1164.0859 C147,1164.0859 147,1164.0859 162,1164.0859 L172,1164.0859 " fill="none" style="stroke:#181818;stroke-width:1.0;"/><!--SRC=[bPRVRzem4CVVyrTOsajRQLsXcbQXQYg5jLf5LCIFlanxCF4HF1oRsMSG_tqD2IcGE4bv2_V9zou-tzT-C4Wr9booXAw2ApBHL9e-HTeT_Ww8-rtz-I9u0d_9CqNOqEt-ppmGBt0ch8k6LD8Oyc0Hc1hG9-5Z9DO0qgK0dAWbo3fk134tMAyt0WCufCPib6OLjRrgLYys53I2HcIFoWX44JrD-iY5u3AkJKkt2KWyN_sYteH7Iy0wkL0nFj-MiATYOz1h7e5NBQNUmc_trdBsiy2LDcEc53OXnmkBJ6ra4_QneQRBRhbWzyeqBFQ_1OCZIDIQYffb62gDJqflg6QkePzOahGPJSW-243mpDuOAVB81DMJLHZ08kBViXzCsROj6MF_1lk03fli-BEKyv_OVLENEKygDvK3udEK5PVBmzhkcDVPFuZGf-ATw6EPFLIjKp7EgT8uNxiGSA6Od-okLc8xWhcLhAwmJB6wDByp74kbLBLIJrYVx-OVcJ5U8q_1_MH1hLvQMePLrrPXMSTQ6LQYTGAd0rUcMKmvWMGbA3PDVS0_LK8Xn_ciU4mWbVACVnui7VmyccsokWmUPyZZvPwGXylsGabyLuNr5-7fs7ayKta0oGvtdy0Ty1AduO2iGHkk96bTjs_QjzUjsulGFVKX8gqMQTrrsZUTxp_8TD8Zk_XbSF4y712Zh8w0C7SnqNncqGbS1YzqJSd8IdGtg0wHLeZWvItiaB6TESorqnsXGH_cr0ealsIaTWT8nqa_VRqB1gwxrlbVzc9FEHszJP_U0G00]--></g></svg>