<?xml version="1.0" encoding="us-ascii" standalone="no"?><svg xmlns="http://www.w3.org/2000/svg" xmlns:xlink="http://www.w3.org/1999/xlink" contentStyleType="text/css" height="254px" preserveAspectRatio="none" style="width:523px;height:254px;background:#FFFFFF;" version="1.1" viewBox="0 0 523 254" width="523px" zoomAndPan="magnify"><defs/><g><ellipse cx="308.25" cy="20" fill="#222222" rx="10" ry="10" style="stroke:#222222;stroke-width:1.0;"/><polygon fill="#F1F1F1" points="233.25,50,383.25,50,395.25,62,383.25,74,233.25,74,221.25,62,233.25,50" style="stroke:#181818;stroke-width:0.5;"/><text fill="#000000" font-family="sans-serif" font-size="11" lengthAdjust="spacing" textLength="150" x="233.25" y="65.8081">user and password match</text><text fill="#000000" font-family="sans-serif" font-size="11" lengthAdjust="spacing" textLength="20" x="201.25" y="59.4058">yes</text><text fill="#000000" font-family="sans-serif" font-size="11" lengthAdjust="spacing" textLength="14" x="395.25" y="59.4058">no</text><rect fill="#008000" height="33.9688" rx="12.5" ry="12.5" style="stroke:#181818;stroke-width:0.5;" width="334" x="11" y="84"/><text fill="#000000" font-family="sans-serif" font-size="12" lengthAdjust="spacing" textLength="314" x="21" y="105.1387">[AWAIT] Generate token and writing into mongodb</text><rect fill="#FF0000" height="33.9688" rx="12.5" ry="12.5" style="stroke:#181818;stroke-width:0.5;" width="147" x="365" y="84"/><text fill="#000000" font-family="sans-serif" font-size="12" lengthAdjust="spacing" textLength="127" x="375" y="105.1387">set status code 403</text><polygon fill="#F1F1F1" points="308.25,123.9688,320.25,135.9688,308.25,147.9688,296.25,135.9688,308.25,123.9688" style="stroke:#181818;stroke-width:0.5;"/><rect fill="#ADD8E6" height="33.9688" rx="12.5" ry="12.5" style="stroke:#181818;stroke-width:0.5;" width="102" x="257.25" y="167.9688"/><text fill="#000000" font-family="sans-serif" font-size="12" lengthAdjust="spacing" textLength="82" x="267.25" y="189.1074">Return result</text><ellipse cx="308.25" cy="232.9375" fill="none" rx="11" ry="11" style="stroke:#222222;stroke-width:1.0;"/><ellipse cx="308.25" cy="232.9375" fill="#222222" rx="6" ry="6" style="stroke:#222222;stroke-width:1.0;"/><line style="stroke:#181818;stroke-width:1.0;" x1="221.25" x2="178" y1="62" y2="62"/><line style="stroke:#181818;stroke-width:1.0;" x1="178" x2="178" y1="62" y2="84"/><polygon fill="#181818" points="174,74,178,84,182,74,178,78" style="stroke:#181818;stroke-width:1.0;"/><line style="stroke:#181818;stroke-width:1.0;" x1="395.25" x2="438.5" y1="62" y2="62"/><line style="stroke:#181818;stroke-width:1.0;" x1="438.5" x2="438.5" y1="62" y2="84"/><polygon fill="#181818" points="434.5,74,438.5,84,442.5,74,438.5,78" style="stroke:#181818;stroke-width:1.0;"/><line style="stroke:#181818;stroke-width:1.0;" x1="178" x2="178" y1="117.9688" y2="135.9688"/><line style="stroke:#181818;stroke-width:1.0;" x1="178" x2="296.25" y1="135.9688" y2="135.9688"/><polygon fill="#181818" points="286.25,131.9688,296.25,135.9688,286.25,139.9688,290.25,135.9688" style="stroke:#181818;stroke-width:1.0;"/><line style="stroke:#181818;stroke-width:1.0;" x1="438.5" x2="438.5" y1="117.9688" y2="135.9688"/><line style="stroke:#181818;stroke-width:1.0;" x1="438.5" x2="320.25" y1="135.9688" y2="135.9688"/><polygon fill="#181818" points="330.25,131.9688,320.25,135.9688,330.25,139.9688,326.25,135.9688" style="stroke:#181818;stroke-width:1.0;"/><line style="stroke:#181818;stroke-width:1.0;" x1="308.25" x2="308.25" y1="30" y2="50"/><polygon fill="#181818" points="304.25,40,308.25,50,312.25,40,308.25,44" style="stroke:#181818;stroke-width:1.0;"/><line style="stroke:#181818;stroke-width:1.0;" x1="308.25" x2="308.25" y1="147.9688" y2="167.9688"/><polygon fill="#181818" points="304.25,157.9688,308.25,167.9688,312.25,157.9688,308.25,161.9688" style="stroke:#181818;stroke-width:1.0;"/><line style="stroke:#181818;stroke-width:1.0;" x1="308.25" x2="308.25" y1="201.9375" y2="221.9375"/><polygon fill="#181818" points="304.25,211.9375,308.25,221.9375,312.25,211.9375,308.25,215.9375" style="stroke:#181818;stroke-width:1.0;"/><!--SRC=[7Smn3u8m48RXlR_YIrnWCz499YRZQamSZ4EXHsc4AxcxXlZlHVVdVTMyc7DfH5MK19u3Lg-wPGbOl0rJ3Pk8KNr8QmSSeX1ny-mUtVN-meMOn1l1ydjNltoJP8aZ4bl6aZdcqBUEPYLKdFyFeT0e6TIy5SMG0-5yFEsAGnhTOKvnidukrDp8YZ24jCpMEgUMroy0]--></g></svg>