<?xml version="1.0" encoding="us-ascii" standalone="no"?><svg xmlns="http://www.w3.org/2000/svg" xmlns:xlink="http://www.w3.org/1999/xlink" contentStyleType="text/css" height="254px" preserveAspectRatio="none" style="width:421px;height:254px;background:#FFFFFF;" version="1.1" viewBox="0 0 421 254" width="421px" zoomAndPan="magnify"><defs/><g><ellipse cx="231.75" cy="20" fill="#222222" rx="10" ry="10" style="stroke:#222222;stroke-width:1.0;"/><polygon fill="#F1F1F1" points="194.25,50,269.25,50,281.25,62,269.25,74,194.25,74,182.25,62,194.25,50" style="stroke:#181818;stroke-width:0.5;"/><text fill="#000000" font-family="sans-serif" font-size="11" lengthAdjust="spacing" textLength="75" x="194.25" y="65.8081">token is vaild</text><text fill="#000000" font-family="sans-serif" font-size="11" lengthAdjust="spacing" textLength="20" x="162.25" y="59.4058">yes</text><text fill="#000000" font-family="sans-serif" font-size="11" lengthAdjust="spacing" textLength="14" x="281.25" y="59.4058">no</text><rect fill="#008000" height="33.9688" rx="12.5" ry="12.5" style="stroke:#181818;stroke-width:0.5;" width="232" x="11" y="84"/><text fill="#000000" font-family="sans-serif" font-size="12" lengthAdjust="spacing" textLength="212" x="21" y="105.1387">[AWAIT] Process Callback function</text><rect fill="#FF0000" height="33.9688" rx="12.5" ry="12.5" style="stroke:#181818;stroke-width:0.5;" width="147" x="263" y="84"/><text fill="#000000" font-family="sans-serif" font-size="12" lengthAdjust="spacing" textLength="127" x="273" y="105.1387">set status code 403</text><polygon fill="#F1F1F1" points="231.75,123.9688,243.75,135.9688,231.75,147.9688,219.75,135.9688,231.75,123.9688" style="stroke:#181818;stroke-width:0.5;"/><rect fill="#ADD8E6" height="33.9688" rx="12.5" ry="12.5" style="stroke:#181818;stroke-width:0.5;" width="102" x="180.75" y="167.9688"/><text fill="#000000" font-family="sans-serif" font-size="12" lengthAdjust="spacing" textLength="82" x="190.75" y="189.1074">Return result</text><ellipse cx="231.75" cy="232.9375" fill="none" rx="11" ry="11" style="stroke:#222222;stroke-width:1.0;"/><ellipse cx="231.75" cy="232.9375" fill="#222222" rx="6" ry="6" style="stroke:#222222;stroke-width:1.0;"/><line style="stroke:#181818;stroke-width:1.0;" x1="182.25" x2="127" y1="62" y2="62"/><line style="stroke:#181818;stroke-width:1.0;" x1="127" x2="127" y1="62" y2="84"/><polygon fill="#181818" points="123,74,127,84,131,74,127,78" style="stroke:#181818;stroke-width:1.0;"/><line style="stroke:#181818;stroke-width:1.0;" x1="281.25" x2="336.5" y1="62" y2="62"/><line style="stroke:#181818;stroke-width:1.0;" x1="336.5" x2="336.5" y1="62" y2="84"/><polygon fill="#181818" points="332.5,74,336.5,84,340.5,74,336.5,78" style="stroke:#181818;stroke-width:1.0;"/><line style="stroke:#181818;stroke-width:1.0;" x1="127" x2="127" y1="117.9688" y2="135.9688"/><line style="stroke:#181818;stroke-width:1.0;" x1="127" x2="219.75" y1="135.9688" y2="135.9688"/><polygon fill="#181818" points="209.75,131.9688,219.75,135.9688,209.75,139.9688,213.75,135.9688" style="stroke:#181818;stroke-width:1.0;"/><line style="stroke:#181818;stroke-width:1.0;" x1="336.5" x2="336.5" y1="117.9688" y2="135.9688"/><line style="stroke:#181818;stroke-width:1.0;" x1="336.5" x2="243.75" y1="135.9688" y2="135.9688"/><polygon fill="#181818" points="253.75,131.9688,243.75,135.9688,253.75,139.9688,249.75,135.9688" style="stroke:#181818;stroke-width:1.0;"/><line style="stroke:#181818;stroke-width:1.0;" x1="231.75" x2="231.75" y1="30" y2="50"/><polygon fill="#181818" points="227.75,40,231.75,50,235.75,40,231.75,44" style="stroke:#181818;stroke-width:1.0;"/><line style="stroke:#181818;stroke-width:1.0;" x1="231.75" x2="231.75" y1="147.9688" y2="167.9688"/><polygon fill="#181818" points="227.75,157.9688,231.75,167.9688,235.75,157.9688,231.75,161.9688" style="stroke:#181818;stroke-width:1.0;"/><line style="stroke:#181818;stroke-width:1.0;" x1="231.75" x2="231.75" y1="201.9375" y2="221.9375"/><polygon fill="#181818" points="227.75,211.9375,231.75,221.9375,235.75,211.9375,231.75,215.9375" style="stroke:#181818;stroke-width:1.0;"/><!--SRC=[7Sin2y8m48RX_Nx51rtQJT2fdOgJcuZW80vfScr3ZqHo5y5_Rt5yuNdLN36YEAErl752L7nSbD31rZtRBsj7GBCKvjG_nyTukRzmBTcpAivEP79-mroJjvZJG2pAQ5F-NuL3hsnGSrOLFWV6wN3SLGfnfaRYijeabViRMoq9XRMA3KHg-Vq3]--></g></svg>