<?xml version="1.0" encoding="UTF-8" standalone="no"?>
<!-- Created with Inkscape (http://www.inkscape.org/) -->

<svg
   width="512"
   height="256"
   viewBox="0 0 512 256"
   version="1.1"
   id="svg1"
   inkscape:version="1.3.2 (091e20ef0f, 2023-11-25)"
   sodipodi:docname="logo.svg"
   xmlns:inkscape="http://www.inkscape.org/namespaces/inkscape"
   xmlns:sodipodi="http://sodipodi.sourceforge.net/DTD/sodipodi-0.dtd"
   xmlns="http://www.w3.org/2000/svg"
   xmlns:svg="http://www.w3.org/2000/svg">
  <sodipodi:namedview
     id="namedview1"
     pagecolor="#ffffff"
     bordercolor="#000000"
     borderopacity="0.25"
     inkscape:showpageshadow="2"
     inkscape:pageopacity="0.0"
     inkscape:pagecheckerboard="0"
     inkscape:deskcolor="#d1d1d1"
     inkscape:document-units="px"
     inkscape:zoom="1.5410156"
     inkscape:cx="275.79214"
     inkscape:cy="21.089987"
     inkscape:window-width="1920"
     inkscape:window-height="1006"
     inkscape:window-x="0"
     inkscape:window-y="0"
     inkscape:window-maximized="1"
     inkscape:current-layer="layer1" />
  <defs
     id="defs1">
    <rect
       x="87.313054"
       y="70.760456"
       width="176.35741"
       height="71.779468"
       id="rect2" />
    <rect
       x="56.826362"
       y="31.594423"
       width="357.3308"
       height="112.12928"
       id="rect1" />
  </defs>
  <g
     inkscape:label="Layer 1"
     inkscape:groupmode="layer"
     id="layer1">
    <path
       style="-inkscape-font-specification:'Open Sans Italic';fill:#000080;stroke-width:1.801"
       d="m 61.582031,49.314731 h -1.679687 l 2.705078,-12.802734 h -3.964844 l 0.322266,-1.47461 h 9.61914 l -0.292968,1.47461 H 64.306641 Z M 73.134766,38.416294 q 0.673828,0 1.171875,0.136718 l -0.351563,1.464844 q -0.517578,-0.126953 -1.025391,-0.126953 -0.888671,0 -1.669921,0.585937 -0.771485,0.585938 -1.357422,1.63086 -0.576172,1.035156 -0.84961,2.304687 l -1.044922,4.902344 h -1.640625 l 2.285157,-10.703125 h 1.357422 l -0.214844,1.982422 h 0.09766 q 0.703125,-0.927734 1.162109,-1.328125 0.458985,-0.410156 0.957032,-0.625 0.507812,-0.224609 1.123047,-0.224609 z m 6.416015,0 q 0.898438,0 1.601563,0.488281 0.703125,0.478515 1.09375,1.386719 h 0.107422 l 0.654296,-1.679688 h 1.240235 l -2.275391,10.703125 h -1.298828 l 0.253906,-2.041016 h -0.07813 q -1.748047,2.236329 -3.68164,2.236329 -1.357422,0 -2.128907,-0.966797 -0.771484,-0.966797 -0.771484,-2.646485 0,-2.03125 0.693359,-3.769531 0.69336,-1.738281 1.914063,-2.724609 1.220703,-0.986328 2.675781,-0.986328 z m -1.855469,9.736328 q 0.947266,0 1.884766,-0.898438 0.9375,-0.908203 1.523438,-2.353515 0.585937,-1.455079 0.585937,-2.910157 0,-1.005859 -0.546875,-1.601562 -0.546875,-0.595703 -1.435547,-0.595703 -1.015625,0 -1.894531,0.839843 -0.869141,0.839844 -1.367188,2.275391 -0.498046,1.435547 -0.498046,3.027344 0,1.113281 0.458984,1.669922 0.458984,0.546875 1.289062,0.546875 z m 14.033204,1.162109 1.445312,-6.757812 q 0.195313,-1.015625 0.195313,-1.40625 0,-0.615235 -0.351563,-0.986329 -0.341797,-0.371093 -1.103516,-0.371093 -0.86914,0 -1.699218,0.585937 -0.820313,0.585938 -1.455078,1.669922 -0.625,1.083984 -0.947266,2.626953 l -0.986328,4.638672 h -1.640625 l 2.285156,-10.703125 h 1.357422 l -0.214844,1.982422 h 0.09766 q 0.9375,-1.191406 1.806641,-1.679688 0.878906,-0.498046 1.816406,-0.498046 1.240235,0 1.953125,0.683593 0.722657,0.673828 0.722657,1.894532 0,0.771484 -0.22461,1.757812 l -1.396484,6.5625 z m 11.601564,-3.037109 q 0,1.523437 -1.08399,2.382812 -1.07421,0.84961 -3.037106,0.84961 -1.65039,0 -2.978515,-0.673829 v -1.542968 q 0.683593,0.410156 1.474609,0.634765 0.791016,0.22461 1.464844,0.22461 1.230468,0 1.855468,-0.488282 0.625,-0.488281 0.625,-1.25 0,-0.55664 -0.3418,-0.9375 -0.34179,-0.380859 -1.474606,-1.044921 -1.269531,-0.712891 -1.796875,-1.396485 -0.527343,-0.683594 -0.527343,-1.621094 0,-1.347656 0.986328,-2.167968 0.986328,-0.830078 2.597656,-0.830078 1.66992,0 3.22266,0.722656 l -0.52735,1.33789 -0.54687,-0.24414 q -0.98633,-0.419922 -2.14844,-0.419922 -0.9082,0 -1.425781,0.429687 -0.517578,0.419922 -0.517578,1.09375 0,0.546875 0.341796,0.9375 0.351563,0.390625 1.435543,1.00586 1.04493,0.585937 1.49415,1.005859 0.45898,0.419922 0.68359,0.908203 0.22461,0.478516 0.22461,1.083985 z"
       id="text1"
       transform="matrix(5.9333432,0,0,5.9333432,-311.15951,-174.47012)"
       aria-label="Trans" />
    <path
       style="-inkscape-font-specification:'Open Sans Bold Italic';fill:#000080;stroke-width:1.801"
       d="m 100.23242,79.603794 q 0,2.734375 -0.957029,4.755859 -0.957032,2.011719 -2.773438,3.066406 -1.806641,1.054688 -4.267578,1.054688 h -4.404297 l 3.017578,-14.277344 h 3.867188 q 2.636718,0 4.072265,1.396484 1.445311,1.396485 1.445311,4.003907 z m -7.861326,6.376953 q 1.445312,0 2.519531,-0.742188 1.074219,-0.742187 1.679687,-2.177734 0.605469,-1.445313 0.605469,-3.300781 0,-1.503907 -0.71289,-2.285157 -0.703125,-0.791015 -2.03125,-0.791015 h -1.123047 l -1.972657,9.296875 z m 12.441406,2.695312 q -1.43555,0 -2.26562,-1.035156 -0.82032,-1.044922 -0.82032,-2.919922 0,-1.933594 0.70313,-3.681641 0.70312,-1.757812 1.8457,-2.714843 1.14258,-0.966797 2.50977,-0.966797 0.94726,0 1.63086,0.410156 0.69336,0.410156 1.07421,1.191406 h 0.0781 l 0.55664,-1.396484 h 2.26563 l -2.32422,10.917969 h -2.23633 l 0.13672,-1.416016 h -0.0391 q -1.30859,1.611328 -3.11523,1.611328 z m 1.15234,-2.373047 q 0.67383,0 1.29883,-0.654297 0.625,-0.654296 1.00586,-1.767578 0.38086,-1.123047 0.38086,-2.539062 0,-0.69336 -0.38086,-1.142578 -0.37109,-0.458985 -0.98633,-0.458985 -0.66406,0 -1.26953,0.703125 -0.5957,0.703125 -0.95703,1.855469 -0.35156,1.152344 -0.35156,2.285156 0,0.859375 0.32226,1.289063 0.33204,0.429687 0.9375,0.429687 z m 11.78711,0 q 0.63477,0 1.58203,-0.341797 v 2.197266 q -1.08398,0.517578 -2.59765,0.517578 -1.46485,0 -2.1582,-0.615234 -0.6836,-0.615235 -0.6836,-1.904297 0,-0.488281 0.11719,-1.09375 l 1.12305,-5.263672 h -1.48438 l 0.2832,-1.435547 1.91407,-0.820312 1.28906,-2.304688 h 1.89453 l -0.47852,2.324219 h 2.76368 l -0.48828,2.236328 h -2.75391 l -1.12305,5.263672 q -0.0586,0.292969 -0.0586,0.517578 0,0.722656 0.85937,0.722656 z m 7.14844,2.373047 q -1.43555,0 -2.26562,-1.035156 -0.82032,-1.044922 -0.82032,-2.919922 0,-1.933594 0.70313,-3.681641 0.70312,-1.757812 1.8457,-2.714843 1.14258,-0.966797 2.50977,-0.966797 0.94726,0 1.63086,0.410156 0.69336,0.410156 1.07421,1.191406 h 0.0781 l 0.55664,-1.396484 h 2.26563 l -2.32422,10.917969 h -2.23633 l 0.13672,-1.416016 h -0.0391 q -1.30859,1.611328 -3.11523,1.611328 z m 1.15234,-2.373047 q 0.67383,0 1.29883,-0.654297 0.625,-0.654296 1.00586,-1.767578 0.38086,-1.123047 0.38086,-2.539062 0,-0.69336 -0.38086,-1.142578 -0.37109,-0.458985 -0.98633,-0.458985 -0.66406,0 -1.26953,0.703125 -0.5957,0.703125 -0.95703,1.855469 -0.35156,1.152344 -0.35156,2.285156 0,0.859375 0.32226,1.289063 0.33204,0.429687 0.9375,0.429687 z"
       id="text2"
       transform="matrix(6.9152725,0,0,6.9152725,-429.51726,-377.90934)"
       aria-label="Data" />
    <rect
       style="fill:#000080;stroke-width:2.02218"
       id="rect5-5"
       width="42.816078"
       height="29.75749"
       x="343.47284"
       y="254.31989"
       transform="matrix(1,0,-0.72113043,0.69279932,0,0)" />
    <rect
       style="fill:#000080;stroke-width:2.02218"
       id="rect5-5-2"
       width="42.816078"
       height="29.75749"
       x="318.33997"
       y="211.6942"
       transform="matrix(1,0,-0.72113043,0.69279932,0,0)" />
    <rect
       style="fill:#000080;stroke-width:2.02218"
       id="rect5-5-7"
       width="42.816078"
       height="29.75749"
       x="368.70813"
       y="297.78894"
       transform="matrix(1,0,-0.72113043,0.69279932,0,0)" />
  </g>
</svg>
