<?xml version="1.0" encoding="UTF-8" standalone="no"?>
<!-- Created with Inkscape (http://www.inkscape.org/) -->

<svg
   width="512"
   height="512"
   viewBox="0 0 512 512"
   version="1.1"
   id="svg1"
   xml:space="preserve"
   inkscape:version="1.3.2 (091e20ef0f, 2023-11-25)"
   sodipodi:docname="hairpin.svg"
   inkscape:export-filename="hairpin.png"
   inkscape:export-xdpi="96"
   inkscape:export-ydpi="96"
   xmlns:inkscape="http://www.inkscape.org/namespaces/inkscape"
   xmlns:sodipodi="http://sodipodi.sourceforge.net/DTD/sodipodi-0.dtd"
   xmlns="http://www.w3.org/2000/svg"
   xmlns:svg="http://www.w3.org/2000/svg"><sodipodi:namedview
     id="namedview1"
     pagecolor="#ffffff"
     bordercolor="#000000"
     borderopacity="0.25"
     inkscape:showpageshadow="2"
     inkscape:pageopacity="0.0"
     inkscape:pagecheckerboard="0"
     inkscape:deskcolor="#d1d1d1"
     inkscape:document-units="px"
     inkscape:zoom="0.6204214"
     inkscape:cx="481.93051"
     inkscape:cy="144.25679"
     inkscape:window-width="1920"
     inkscape:window-height="1006"
     inkscape:window-x="0"
     inkscape:window-y="0"
     inkscape:window-maximized="1"
     inkscape:current-layer="layer1"
     inkscape:export-bgcolor="#ffffffff" /><defs
     id="defs1"><inkscape:path-effect
       effect="copy_rotate"
       starting_point="477.65871,122.02815"
       origin="400.6874,122.02815"
       id="path-effect2"
       is_visible="true"
       lpeversion="1.2"
       lpesatellites=""
       method="normal"
       num_copies="6"
       starting_angle="0"
       rotation_angle="60"
       gap="-0.01"
       copies_to_360="true"
       mirror_copies="false"
       split_items="false"
       link_styles="false" /><inkscape:path-effect
       effect="bspline"
       id="path-effect1"
       is_visible="true"
       lpeversion="1.3"
       weight="33.333333"
       steps="2"
       helper_size="0"
       apply_no_weight="true"
       apply_with_weight="true"
       only_selected="false"
       uniform="false" /><inkscape:path-effect
       effect="copy_rotate"
       starting_point="108.16864,74.215701"
       origin="74.716454,74.215701"
       id="path-effect4"
       is_visible="true"
       lpeversion="1.2"
       lpesatellites="#path4 | #path5 | #path6 | #path7 | #path8"
       method="normal"
       num_copies="6"
       starting_angle="0"
       rotation_angle="60"
       gap="-0.01"
       copies_to_360="true"
       mirror_copies="false"
       split_items="true"
       link_styles="false" /><inkscape:path-effect
       effect="bspline"
       id="path-effect3"
       is_visible="true"
       lpeversion="1.3"
       weight="33.333333"
       steps="2"
       helper_size="0"
       apply_no_weight="true"
       apply_with_weight="true"
       only_selected="false"
       uniform="false" /></defs><g
     inkscape:label="Layer 1"
     inkscape:groupmode="layer"
     id="layer1"><path
       style="fill:#000080;fill-opacity:1"
       d="m 217.15282,93.005362 c -4.35255,4.352546 -8.7051,8.705098 -10.21581,14.466108 -1.51071,5.76102 -0.17964,12.93023 1.15146,20.09958 29.20007,10.30769 58.39956,20.61518 83.75351,33.55824 25.35394,12.94306 46.86033,28.52067 68.36714,44.09859 C 321.83529,143.25981 283.46224,81.292989 259.61904,62.588859 c -23.8432,-18.70413 -33.15461,5.855937 -42.46622,30.416503 z m 66.63282,173.456998 c 1.59314,5.9457 3.18628,11.89139 7.42011,16.08021 4.23383,4.18883 11.10809,6.62069 17.98248,9.0526 23.52675,-20.13416 47.05304,-40.26792 70.93904,-55.75355 23.88599,-15.48563 48.12979,-26.3219 72.37407,-37.15839 -72.85284,2.24868 -145.7042,4.4973 -173.82405,15.79405 -28.11986,11.29676 -11.50592,31.64071 5.10835,51.98508 z m 183.53458,29.02279 c 5.94569,1.59315 11.89138,3.1863 17.63593,1.6141 5.74454,-1.57219 11.28772,-6.30954 16.83101,-11.04698 -5.67332,-30.44185 -11.34652,-60.8831 -12.81447,-89.31179 -1.46795,-28.42869 1.26946,-54.84257 4.00693,-81.25698 -34.47901,64.21675 -68.95733,128.43219 -73.23398,158.43308 -4.27665,30.00088 21.6487,25.78477 47.57458,21.56857 z M 584.22198,151.05094 c 4.35255,-4.35255 8.7051,-8.7051 10.21581,-14.46611 1.51071,-5.76102 0.17964,-12.93023 -1.15146,-20.09958 C 564.08626,106.17756 534.88677,95.870074 509.53282,82.927012 484.17888,69.983951 462.67249,54.40634 441.16568,38.82842 c 38.37383,61.96807 76.74688,123.93489 100.59008,142.63902 23.8432,18.70413 33.15461,-5.85594 42.46622,-30.4165 z M 517.58916,-22.406065 c -1.59314,-5.945692 -3.18628,-11.891388 -7.42011,-16.08021 -4.23383,-4.188822 -11.10809,-6.620683 -17.98248,-9.052591 C 468.65982,-27.404709 445.13353,-7.2709502 421.24753,8.2146789 397.36154,23.700308 373.11774,34.53658 348.87346,45.373066 421.7263,43.124394 494.57766,40.875767 522.69751,29.579015 550.81737,18.282264 534.20343,-2.0616937 517.58916,-22.406065 Z M 334.05458,-51.428853 c -5.94569,-1.593146 -11.89138,-3.186293 -17.63593,-1.614098 -5.74454,1.572195 -11.28772,6.309543 -16.83101,11.046985 5.67332,30.441847 11.34652,60.883092 12.81447,89.311782 1.46795,28.428691 -1.26946,54.842574 -4.00693,81.256984 34.47901,-64.216749 68.95733,-128.43219432 73.23398,-158.433076 4.27665,-30.000882 -21.6487,-25.784772 -47.57458,-21.568577 z"
       id="path1"
       inkscape:path-effect="#path-effect1;#path-effect2"
       inkscape:original-d="m 217.15282,93.005362 c 0,0 -8.7051,8.705098 -13.05765,13.057638 1.33113,7.16949 3.9933,21.50805 3.9933,21.50805 0,0 58.39956,20.61518 87.60021,30.92307 21.50724,15.57823 64.52044,46.73376 64.52044,46.73376 0,0 -76.74688,-123.934889 -115.12148,-185.904217 -9.3118,24.561064 -27.93482,73.681699 -27.93482,73.681699 z"
       transform="matrix(1.3193312,0,0,1.3193312,-272.63939,95.004454)"
       sodipodi:nodetypes="ccccccc" /><g
       id="g8"
       transform="matrix(1.3060569,0.61245313,-0.61245313,1.3060569,252.71036,146.54082)"
       style="fill:#333333"><path
         style="fill:#333333;fill-opacity:1;stroke-width:0.264583"
         d="m 74.716454,69.83256 c 10.412979,-5.162672 20.82596,-10.325346 31.976806,-8.471384 11.15085,1.853962 23.03909,10.7242 34.92757,19.594616 -7.48412,3.940917 -14.96824,7.881833 -26.11912,6.027884 C 104.35083,85.129726 89.533793,77.481221 74.716454,69.83256 Z"
         id="path3"
         inkscape:path-effect="#path-effect3;#path-effect4"
         inkscape:original-d="m 74.716454,69.83256 c 0,0 20.825962,-10.325343 31.238936,-15.488017 11.88872,8.870595 35.66544,26.611249 35.66544,26.611249 0,0 -14.96824,7.881834 -22.45236,11.82275 C 104.35083,85.129729 74.716454,69.83256 74.716454,69.83256 Z"
         transform="translate(-40.435309,-6.4823672)" /><path
         transform="rotate(-60,48.884905,105.99252)"
         style="fill:#333333;fill-opacity:1;stroke-width:0.264583"
         id="path4"
         d="m 74.716454,69.83256 c 10.412979,-5.162672 20.82596,-10.325346 31.976806,-8.471384 11.15085,1.853962 23.03909,10.7242 34.92757,19.594616 -7.48412,3.940917 -14.96824,7.881833 -26.11912,6.027884 C 104.35083,85.129726 89.533793,77.481221 74.716454,69.83256 Z" /><path
         transform="rotate(-120,52.627501,82.647186)"
         style="fill:#333333;fill-opacity:1;stroke-width:0.264583"
         id="path5"
         d="m 74.716454,69.83256 c 10.412979,-5.162672 20.82596,-10.325346 31.976806,-8.471384 11.15085,1.853962 23.03909,10.7242 34.92757,19.594616 -7.48412,3.940917 -14.96824,7.881833 -26.11912,6.027884 C 104.35083,85.129726 89.533793,77.481221 74.716454,69.83256 Z"
         sodipodi:nodetypes="cscsc" /><path
         transform="rotate(180,54.4988,70.974517)"
         style="fill:#333333;fill-opacity:1;stroke-width:0.264583"
         id="path6"
         d="m 74.716454,69.83256 c 10.412979,-5.162672 20.82596,-10.325346 31.976806,-8.471384 11.15085,1.853962 23.03909,10.7242 34.92757,19.594616 -7.48412,3.940917 -14.96824,7.881833 -26.11912,6.027884 C 104.35083,85.129726 89.533793,77.481221 74.716454,69.83256 Z" /><path
         transform="rotate(120,56.370098,59.301849)"
         style="fill:#333333;fill-opacity:1;stroke-width:0.264583"
         id="path7"
         d="m 74.716454,69.83256 c 10.412979,-5.162672 20.82596,-10.325346 31.976806,-8.471384 11.15085,1.853962 23.03909,10.7242 34.92757,19.594616 -7.48412,3.940917 -14.96824,7.881833 -26.11912,6.027884 C 104.35083,85.129726 89.533793,77.481221 74.716454,69.83256 Z" /><path
         transform="rotate(60,60.112694,35.956513)"
         style="fill:#333333;fill-opacity:1;stroke-width:0.264583"
         id="path8"
         d="m 74.716454,69.83256 c 10.412979,-5.162672 20.82596,-10.325346 31.976806,-8.471384 11.15085,1.853962 23.03909,10.7242 34.92757,19.594616 -7.48412,3.940917 -14.96824,7.881833 -26.11912,6.027884 C 104.35083,85.129726 89.533793,77.481221 74.716454,69.83256 Z" /></g></g></svg>
